<mxfile host="Electron" modified="2023-09-12T20:49:40.615Z" agent="Mozilla/5.0 (Windows NT 10.0; Win64; x64) AppleWebKit/537.36 (KHTML, like Gecko) draw.io/21.6.1 Chrome/112.0.5615.204 Electron/24.6.1 Safari/537.36" etag="6o1jsCBKLtN0VnHX9WOI" version="21.6.1" type="device" pages="5">
  <diagram name="Main Markup Structure" id="Bw9Pths7QsViTWkdfxMK">
    <mxGraphModel dx="907" dy="1260" grid="1" gridSize="10" guides="1" tooltips="1" connect="1" arrows="1" fold="1" page="1" pageScale="1" pageWidth="850" pageHeight="1100" math="0" shadow="0">
      <root>
        <mxCell id="0" />
        <mxCell id="1" parent="0" />
        <mxCell id="SiYjb0A7RiHsu-fIEBsu-1" value="" style="rounded=0;whiteSpace=wrap;html=1;" parent="1" vertex="1">
          <mxGeometry x="25" y="750" width="380" height="310" as="geometry" />
        </mxCell>
        <mxCell id="v57rczytO1OhNIZWl0pn-1" value="" style="rounded=0;whiteSpace=wrap;html=1;" parent="1" vertex="1">
          <mxGeometry x="20" y="140" width="380" height="310" as="geometry" />
        </mxCell>
        <mxCell id="SiYjb0A7RiHsu-fIEBsu-2" value="&lt;b&gt;&amp;lt;body&amp;gt;&lt;/b&gt;" style="text;html=1;strokeColor=#666666;fillColor=#f5f5f5;align=center;verticalAlign=middle;whiteSpace=wrap;rounded=0;fontColor=#333333;" parent="1" vertex="1">
          <mxGeometry x="20" y="10" width="60" height="30" as="geometry" />
        </mxCell>
        <mxCell id="SiYjb0A7RiHsu-fIEBsu-3" value="&lt;ul&gt;&lt;li&gt;&lt;b&gt;&lt;u&gt;1x1 gridbox&lt;/u&gt;&lt;/b&gt;&lt;/li&gt;&lt;li&gt;2 layers stacked on top of each other&lt;/li&gt;&lt;ol&gt;&lt;li&gt;&lt;b&gt;&lt;font color=&quot;#ff0000&quot;&gt;div#home&lt;/font&gt;&amp;nbsp;&lt;/b&gt;(home page)&lt;/li&gt;&lt;li&gt;&lt;b&gt;&lt;font color=&quot;#368613&quot;&gt;main&lt;/font&gt;&lt;/b&gt; (the game area)&lt;/li&gt;&lt;/ol&gt;&lt;/ul&gt;" style="text;html=1;align=left;verticalAlign=middle;whiteSpace=wrap;rounded=0;fillColor=default;" parent="1" vertex="1">
          <mxGeometry x="20" y="50" width="800" height="70" as="geometry" />
        </mxCell>
        <mxCell id="yTyEhCBSS4Ma0KLnNWEf-1" value="" style="rounded=0;whiteSpace=wrap;html=1;" parent="1" vertex="1">
          <mxGeometry x="50" y="170" width="310" height="170" as="geometry" />
        </mxCell>
        <mxCell id="DoLX3buVNHbJkf7DgOu9-2" value="&lt;b&gt;div#home&lt;/b&gt;" style="text;html=1;strokeColor=#b85450;fillColor=#f8cecc;align=center;verticalAlign=middle;whiteSpace=wrap;rounded=0;" parent="1" vertex="1">
          <mxGeometry x="440" y="140" width="100" height="30" as="geometry" />
        </mxCell>
        <mxCell id="DoLX3buVNHbJkf7DgOu9-3" value="&lt;ul&gt;&lt;li&gt;&lt;u&gt;&lt;b&gt;2x1 gridbox&lt;/b&gt;&lt;/u&gt;&lt;/li&gt;&lt;li&gt;z-index:5&lt;/li&gt;&lt;li&gt;Have background image animation&lt;/li&gt;&lt;li&gt;Removed from DOM once START button pressed&lt;/li&gt;&lt;/ul&gt;" style="text;html=1;align=left;verticalAlign=middle;whiteSpace=wrap;rounded=0;fillColor=default;" parent="1" vertex="1">
          <mxGeometry x="440" y="180" width="340" height="70" as="geometry" />
        </mxCell>
        <mxCell id="DoLX3buVNHbJkf7DgOu9-4" value="&lt;b&gt;div#homePageGraphics&lt;/b&gt;" style="text;html=1;strokeColor=#6c8ebf;fillColor=#dae8fc;align=center;verticalAlign=middle;whiteSpace=wrap;rounded=0;" parent="1" vertex="1">
          <mxGeometry x="80" y="240" width="170" height="30" as="geometry" />
        </mxCell>
        <mxCell id="DoLX3buVNHbJkf7DgOu9-5" value="&lt;b&gt;div#homePageGraphics&lt;/b&gt;" style="text;html=1;strokeColor=#6c8ebf;fillColor=#dae8fc;align=center;verticalAlign=middle;whiteSpace=wrap;rounded=0;" parent="1" vertex="1">
          <mxGeometry x="440" y="265" width="170" height="30" as="geometry" />
        </mxCell>
        <mxCell id="DoLX3buVNHbJkf7DgOu9-6" value="&lt;ul&gt;&lt;li&gt;relative positioned&lt;/li&gt;&lt;li&gt;all illustrations are absolutely positioned png images with z-index according to order as children&amp;nbsp;&lt;/li&gt;&lt;/ul&gt;" style="text;html=1;align=left;verticalAlign=middle;whiteSpace=wrap;rounded=0;fillColor=default;" parent="1" vertex="1">
          <mxGeometry x="440" y="310" width="340" height="60" as="geometry" />
        </mxCell>
        <mxCell id="Xs9D_wxf2n59EM-mgv1m-1" value="&lt;b&gt;#moon&lt;/b&gt;" style="rounded=0;whiteSpace=wrap;html=1;fillColor=#fff2cc;strokeColor=#d6b656;" parent="1" vertex="1">
          <mxGeometry x="440" y="390" width="120" height="30" as="geometry" />
        </mxCell>
        <mxCell id="Xs9D_wxf2n59EM-mgv1m-2" value="&lt;ul&gt;&lt;li&gt;CSS controls position over time using&amp;nbsp;&lt;i&gt;offset-distance&lt;/i&gt;&lt;/li&gt;&lt;li&gt;path is calculated by javascript, handled by Resize Observer&#39;s callback&lt;/li&gt;&lt;/ul&gt;" style="text;html=1;align=left;verticalAlign=middle;whiteSpace=wrap;rounded=0;fillColor=default;" parent="1" vertex="1">
          <mxGeometry x="440" y="430" width="370" height="60" as="geometry" />
        </mxCell>
        <mxCell id="Xs9D_wxf2n59EM-mgv1m-3" value="" style="rounded=0;whiteSpace=wrap;html=1;" parent="1" vertex="1">
          <mxGeometry x="50" y="350" width="310" height="80" as="geometry" />
        </mxCell>
        <mxCell id="Xs9D_wxf2n59EM-mgv1m-4" value="&lt;b&gt;div#homeMenu&lt;/b&gt;" style="text;html=1;strokeColor=#6c8ebf;fillColor=#dae8fc;align=center;verticalAlign=middle;whiteSpace=wrap;rounded=0;" parent="1" vertex="1">
          <mxGeometry x="80" y="375" width="170" height="30" as="geometry" />
        </mxCell>
        <mxCell id="Xs9D_wxf2n59EM-mgv1m-5" value="&lt;b&gt;div#homeMenu&lt;/b&gt;" style="text;html=1;strokeColor=#6c8ebf;fillColor=#dae8fc;align=center;verticalAlign=middle;whiteSpace=wrap;rounded=0;" parent="1" vertex="1">
          <mxGeometry x="440" y="500" width="170" height="30" as="geometry" />
        </mxCell>
        <mxCell id="Xs9D_wxf2n59EM-mgv1m-6" value="&lt;ul&gt;&lt;li&gt;&lt;b&gt;&lt;u&gt;flexbox&lt;/u&gt;&lt;/b&gt;, wrap able&lt;/li&gt;&lt;li&gt;contains 3 &amp;lt;button&amp;gt;&lt;/li&gt;&lt;/ul&gt;" style="text;html=1;align=left;verticalAlign=middle;whiteSpace=wrap;rounded=0;fillColor=default;" parent="1" vertex="1">
          <mxGeometry x="440" y="540" width="370" height="40" as="geometry" />
        </mxCell>
        <mxCell id="Xs9D_wxf2n59EM-mgv1m-8" value="&lt;b&gt;#moon&lt;/b&gt;" style="rounded=0;whiteSpace=wrap;html=1;fillColor=#fff2cc;strokeColor=#d6b656;" parent="1" vertex="1">
          <mxGeometry x="290" y="180" width="60" height="60" as="geometry" />
        </mxCell>
        <mxCell id="Xs9D_wxf2n59EM-mgv1m-9" value="" style="rounded=0;whiteSpace=wrap;html=1;" parent="1" vertex="1">
          <mxGeometry x="55" y="770" width="335" height="90" as="geometry" />
        </mxCell>
        <mxCell id="Xs9D_wxf2n59EM-mgv1m-10" value="" style="rounded=0;whiteSpace=wrap;html=1;" parent="1" vertex="1">
          <mxGeometry x="55" y="860" width="335" height="90" as="geometry" />
        </mxCell>
        <mxCell id="Xs9D_wxf2n59EM-mgv1m-11" value="" style="rounded=0;whiteSpace=wrap;html=1;" parent="1" vertex="1">
          <mxGeometry x="55" y="950" width="335" height="90" as="geometry" />
        </mxCell>
        <mxCell id="Xs9D_wxf2n59EM-mgv1m-12" value="&lt;b&gt;&amp;lt;main&amp;gt;&lt;/b&gt;" style="text;html=1;strokeColor=#82b366;fillColor=#d5e8d4;align=center;verticalAlign=middle;whiteSpace=wrap;rounded=0;" parent="1" vertex="1">
          <mxGeometry x="445" y="750" width="100" height="30" as="geometry" />
        </mxCell>
        <mxCell id="Xs9D_wxf2n59EM-mgv1m-13" value="&lt;ul&gt;&lt;li&gt;Container for&amp;nbsp;&lt;u&gt;Container Query&lt;/u&gt;&amp;nbsp;use named &lt;i&gt;mainBox&lt;/i&gt;. NEVER used.&lt;/li&gt;&lt;li&gt;z-index of 0&lt;/li&gt;&lt;li&gt;&lt;b&gt;&lt;u&gt;3x1 gridbox &lt;/u&gt;&lt;/b&gt;with no gap&lt;/li&gt;&lt;li&gt;Each div represents the 3 cardHoldingEntity instances (CPU,Field,Player)&lt;/li&gt;&lt;/ul&gt;" style="text;html=1;align=left;verticalAlign=middle;whiteSpace=wrap;rounded=0;fillColor=default;" parent="1" vertex="1">
          <mxGeometry x="440" y="790" width="400" height="80" as="geometry" />
        </mxCell>
        <mxCell id="Xs9D_wxf2n59EM-mgv1m-15" value="" style="endArrow=none;html=1;rounded=0;" parent="1" edge="1">
          <mxGeometry width="50" height="50" relative="1" as="geometry">
            <mxPoint x="15" y="720" as="sourcePoint" />
            <mxPoint x="835" y="720" as="targetPoint" />
          </mxGeometry>
        </mxCell>
        <mxCell id="Xs9D_wxf2n59EM-mgv1m-16" value="" style="rounded=0;whiteSpace=wrap;html=1;dashed=1;dashPattern=8 8;" parent="1" vertex="1">
          <mxGeometry x="50" y="460" width="310" height="70" as="geometry" />
        </mxCell>
        <mxCell id="Xs9D_wxf2n59EM-mgv1m-17" value="&lt;b&gt;dialog#gameOptionDialog&lt;/b&gt;" style="text;html=1;strokeColor=#6c8ebf;fillColor=#dae8fc;align=center;verticalAlign=middle;whiteSpace=wrap;rounded=0;" parent="1" vertex="1">
          <mxGeometry x="65" y="480" width="170" height="30" as="geometry" />
        </mxCell>
        <mxCell id="Xs9D_wxf2n59EM-mgv1m-18" value="&lt;b style=&quot;border-color: var(--border-color);&quot;&gt;dialog#gameOptionDialog&lt;/b&gt;" style="text;html=1;strokeColor=#6c8ebf;fillColor=#dae8fc;align=center;verticalAlign=middle;whiteSpace=wrap;rounded=0;" parent="1" vertex="1">
          <mxGeometry x="440" y="600" width="170" height="30" as="geometry" />
        </mxCell>
        <mxCell id="Xs9D_wxf2n59EM-mgv1m-19" value="&lt;ul&gt;&lt;li&gt;dialog opened by pressing OPTION button&lt;/li&gt;&lt;li&gt;house a form element, only created when OPTION pressed&amp;nbsp;&lt;/li&gt;&lt;/ul&gt;" style="text;html=1;align=left;verticalAlign=middle;whiteSpace=wrap;rounded=0;fillColor=default;" parent="1" vertex="1">
          <mxGeometry x="440" y="640" width="370" height="40" as="geometry" />
        </mxCell>
        <mxCell id="WAIP1jLmQGmEaVy0-SmC-15" style="edgeStyle=orthogonalEdgeStyle;rounded=0;orthogonalLoop=1;jettySize=auto;html=1;entryX=0;entryY=0.5;entryDx=0;entryDy=0;strokeColor=#03a05c;exitX=1;exitY=0.5;exitDx=0;exitDy=0;" parent="1" source="Xs9D_wxf2n59EM-mgv1m-20" target="Xs9D_wxf2n59EM-mgv1m-28" edge="1">
          <mxGeometry relative="1" as="geometry">
            <mxPoint x="107.5" y="830.0000000000002" as="sourcePoint" />
            <mxPoint x="380" y="1150" as="targetPoint" />
            <Array as="points">
              <mxPoint x="300" y="815" />
              <mxPoint x="300" y="1175" />
            </Array>
          </mxGeometry>
        </mxCell>
        <mxCell id="Xs9D_wxf2n59EM-mgv1m-20" value="&lt;b&gt;div.areaHand #handCPU&lt;/b&gt;" style="text;html=1;strokeColor=#6c8ebf;fillColor=#dae8fc;align=center;verticalAlign=middle;whiteSpace=wrap;rounded=0;" parent="1" vertex="1">
          <mxGeometry x="80" y="800" width="170" height="30" as="geometry" />
        </mxCell>
        <mxCell id="Xs9D_wxf2n59EM-mgv1m-21" value="" style="endArrow=classic;html=1;rounded=0;entryX=0;entryY=0.5;entryDx=0;entryDy=0;exitX=1;exitY=0.047;exitDx=0;exitDy=0;exitPerimeter=0;" parent="1" source="v57rczytO1OhNIZWl0pn-1" target="DoLX3buVNHbJkf7DgOu9-2" edge="1">
          <mxGeometry width="50" height="50" relative="1" as="geometry">
            <mxPoint x="340" y="270" as="sourcePoint" />
            <mxPoint x="390" y="220" as="targetPoint" />
          </mxGeometry>
        </mxCell>
        <mxCell id="Xs9D_wxf2n59EM-mgv1m-22" value="" style="endArrow=classic;html=1;rounded=0;entryX=0;entryY=0.5;entryDx=0;entryDy=0;exitX=0.999;exitY=0.049;exitDx=0;exitDy=0;exitPerimeter=0;" parent="1" source="SiYjb0A7RiHsu-fIEBsu-1" target="Xs9D_wxf2n59EM-mgv1m-12" edge="1">
          <mxGeometry width="50" height="50" relative="1" as="geometry">
            <mxPoint x="380" y="880" as="sourcePoint" />
            <mxPoint x="430" y="830" as="targetPoint" />
          </mxGeometry>
        </mxCell>
        <mxCell id="Xs9D_wxf2n59EM-mgv1m-34" style="edgeStyle=orthogonalEdgeStyle;rounded=0;orthogonalLoop=1;jettySize=auto;html=1;entryX=0;entryY=0.5;entryDx=0;entryDy=0;fillColor=#f8cecc;strokeColor=#b85450;" parent="1" source="Xs9D_wxf2n59EM-mgv1m-23" target="Xs9D_wxf2n59EM-mgv1m-26" edge="1">
          <mxGeometry relative="1" as="geometry" />
        </mxCell>
        <mxCell id="Xs9D_wxf2n59EM-mgv1m-23" value="&lt;b&gt;div.areaField #handField&lt;/b&gt;" style="text;html=1;strokeColor=#6c8ebf;fillColor=#dae8fc;align=center;verticalAlign=middle;whiteSpace=wrap;rounded=0;" parent="1" vertex="1">
          <mxGeometry x="80" y="890" width="170" height="30" as="geometry" />
        </mxCell>
        <mxCell id="WAIP1jLmQGmEaVy0-SmC-14" style="edgeStyle=orthogonalEdgeStyle;rounded=0;orthogonalLoop=1;jettySize=auto;html=1;entryX=0;entryY=0.5;entryDx=0;entryDy=0;strokeColor=#03a05c;" parent="1" source="Xs9D_wxf2n59EM-mgv1m-24" target="Xs9D_wxf2n59EM-mgv1m-28" edge="1">
          <mxGeometry relative="1" as="geometry">
            <Array as="points">
              <mxPoint x="300" y="995" />
              <mxPoint x="300" y="1175" />
            </Array>
          </mxGeometry>
        </mxCell>
        <mxCell id="Xs9D_wxf2n59EM-mgv1m-24" value="&lt;b&gt;div.areaHand #handPlayer&lt;/b&gt;" style="text;html=1;strokeColor=#6c8ebf;fillColor=#dae8fc;align=center;verticalAlign=middle;whiteSpace=wrap;rounded=0;" parent="1" vertex="1">
          <mxGeometry x="80" y="980" width="170" height="30" as="geometry" />
        </mxCell>
        <mxCell id="Xs9D_wxf2n59EM-mgv1m-25" value="" style="rounded=0;whiteSpace=wrap;html=1;" parent="1" vertex="1">
          <mxGeometry x="445" y="920" width="335" height="90" as="geometry" />
        </mxCell>
        <mxCell id="Xs9D_wxf2n59EM-mgv1m-26" value="&lt;b&gt;div.areaField&lt;/b&gt;" style="text;html=1;strokeColor=#6c8ebf;fillColor=#dae8fc;align=center;verticalAlign=middle;whiteSpace=wrap;rounded=0;" parent="1" vertex="1">
          <mxGeometry x="445" y="880" width="170" height="30" as="geometry" />
        </mxCell>
        <mxCell id="Xs9D_wxf2n59EM-mgv1m-27" value="" style="rounded=0;whiteSpace=wrap;html=1;" parent="1" vertex="1">
          <mxGeometry x="445" y="1200" width="335" height="130" as="geometry" />
        </mxCell>
        <mxCell id="Xs9D_wxf2n59EM-mgv1m-28" value="&lt;b&gt;div.areaHand&lt;/b&gt;" style="text;html=1;strokeColor=#6c8ebf;fillColor=#dae8fc;align=center;verticalAlign=middle;whiteSpace=wrap;rounded=0;" parent="1" vertex="1">
          <mxGeometry x="445" y="1160" width="170" height="30" as="geometry" />
        </mxCell>
        <mxCell id="Xs9D_wxf2n59EM-mgv1m-36" value="" style="rounded=0;whiteSpace=wrap;html=1;" parent="1" vertex="1">
          <mxGeometry x="465" y="935" width="100" height="60" as="geometry" />
        </mxCell>
        <mxCell id="Xs9D_wxf2n59EM-mgv1m-37" value="&lt;b&gt;div.#deck&lt;/b&gt;" style="text;html=1;strokeColor=#6c8ebf;fillColor=#dae8fc;align=center;verticalAlign=middle;whiteSpace=wrap;rounded=0;" parent="1" vertex="1">
          <mxGeometry x="485" y="950" width="60" height="30" as="geometry" />
        </mxCell>
        <mxCell id="Xs9D_wxf2n59EM-mgv1m-38" value="" style="rounded=0;whiteSpace=wrap;html=1;" parent="1" vertex="1">
          <mxGeometry x="580" y="935" width="185" height="60" as="geometry" />
        </mxCell>
        <mxCell id="Xs9D_wxf2n59EM-mgv1m-39" value="&lt;b&gt;div.#table&lt;/b&gt;" style="text;html=1;strokeColor=#6c8ebf;fillColor=#dae8fc;align=center;verticalAlign=middle;whiteSpace=wrap;rounded=0;" parent="1" vertex="1">
          <mxGeometry x="600" y="950" width="75" height="30" as="geometry" />
        </mxCell>
        <mxCell id="Xs9D_wxf2n59EM-mgv1m-40" value="&lt;ul&gt;&lt;li&gt;&lt;b style=&quot;background-color: initial;&quot;&gt;&lt;u&gt;1x2 gridbox&lt;/u&gt;&lt;/b&gt;&lt;/li&gt;&lt;li&gt;Houses 2 elements&lt;/li&gt;&lt;ol&gt;&lt;li&gt;#deck (master deck respresentation. AKA represent instance of CardDeck)&lt;/li&gt;&lt;li&gt;#table (represent the Cards held by Field instance)&lt;/li&gt;&lt;ul&gt;&lt;li&gt;flexbox, wrap able&lt;/li&gt;&lt;/ul&gt;&lt;/ol&gt;&lt;/ul&gt;" style="text;html=1;align=left;verticalAlign=middle;whiteSpace=wrap;rounded=0;fillColor=default;" parent="1" vertex="1">
          <mxGeometry x="445" y="1030" width="395" height="110" as="geometry" />
        </mxCell>
        <mxCell id="Xs9D_wxf2n59EM-mgv1m-43" value="&lt;ul&gt;&lt;li&gt;Container for &lt;u&gt;Container Query&lt;/u&gt;&amp;nbsp;use named &lt;i&gt;cardsize&lt;/i&gt;. Used in changing the size of individual Card as window / main resizes.&lt;/li&gt;&lt;li&gt;&lt;u&gt;&lt;b&gt;flexbox&lt;/b&gt;&lt;/u&gt;&lt;/li&gt;&lt;li&gt;House 5 divs:&lt;/li&gt;&lt;ol&gt;&lt;li&gt;div.hand&lt;/li&gt;&lt;li&gt;4 x div.captured&lt;/li&gt;&lt;/ol&gt;&lt;/ul&gt;" style="text;html=1;align=left;verticalAlign=middle;whiteSpace=wrap;rounded=0;fillColor=default;" parent="1" vertex="1">
          <mxGeometry x="445" y="1350" width="395" height="100" as="geometry" />
        </mxCell>
        <mxCell id="WAIP1jLmQGmEaVy0-SmC-4" value="" style="rounded=0;whiteSpace=wrap;html=1;fillColor=#e1d5e7;strokeColor=#9673a6;" parent="1" vertex="1">
          <mxGeometry x="450" y="1210" width="120" height="50" as="geometry" />
        </mxCell>
        <mxCell id="WAIP1jLmQGmEaVy0-SmC-5" value="" style="rounded=0;whiteSpace=wrap;html=1;fillColor=#fff2cc;strokeColor=#d6b656;" parent="1" vertex="1">
          <mxGeometry x="582.5" y="1210" width="67.5" height="50" as="geometry" />
        </mxCell>
        <mxCell id="WAIP1jLmQGmEaVy0-SmC-6" value="" style="rounded=0;whiteSpace=wrap;html=1;fillColor=#fff2cc;strokeColor=#d6b656;" parent="1" vertex="1">
          <mxGeometry x="660" y="1210" width="100" height="50" as="geometry" />
        </mxCell>
        <mxCell id="WAIP1jLmQGmEaVy0-SmC-7" value="" style="rounded=0;whiteSpace=wrap;html=1;fillColor=#fff2cc;strokeColor=#d6b656;" parent="1" vertex="1">
          <mxGeometry x="461.25" y="1270" width="118.75" height="50" as="geometry" />
        </mxCell>
        <mxCell id="WAIP1jLmQGmEaVy0-SmC-8" value="" style="rounded=0;whiteSpace=wrap;html=1;fillColor=#fff2cc;strokeColor=#d6b656;" parent="1" vertex="1">
          <mxGeometry x="600" y="1270" width="160" height="50" as="geometry" />
        </mxCell>
        <mxCell id="WAIP1jLmQGmEaVy0-SmC-11" value="div.captured #(hikari/ tane/ tanzaku/ kasu)" style="rounded=0;whiteSpace=wrap;html=1;fillColor=#fff2cc;strokeColor=#d6b656;" parent="1" vertex="1">
          <mxGeometry x="462.5" y="1550" width="250" height="20" as="geometry" />
        </mxCell>
        <mxCell id="WAIP1jLmQGmEaVy0-SmC-12" value="&lt;b&gt;div.captured #&lt;/b&gt;" style="text;html=1;strokeColor=#6c8ebf;fillColor=#dae8fc;align=center;verticalAlign=middle;whiteSpace=wrap;rounded=0;" parent="1" vertex="1">
          <mxGeometry x="610" y="1220" width="105" height="30" as="geometry" />
        </mxCell>
        <mxCell id="WAIP1jLmQGmEaVy0-SmC-13" value="&lt;b&gt;div.hand&lt;/b&gt;" style="text;html=1;strokeColor=#6c8ebf;fillColor=#dae8fc;align=center;verticalAlign=middle;whiteSpace=wrap;rounded=0;" parent="1" vertex="1">
          <mxGeometry x="475" y="1220" width="75" height="30" as="geometry" />
        </mxCell>
        <mxCell id="WAIP1jLmQGmEaVy0-SmC-16" value=".hand" style="rounded=0;whiteSpace=wrap;html=1;fillColor=#e1d5e7;strokeColor=#9673a6;" parent="1" vertex="1">
          <mxGeometry x="462.5" y="1470" width="85" height="20" as="geometry" />
        </mxCell>
        <mxCell id="WAIP1jLmQGmEaVy0-SmC-17" value="&lt;ul&gt;&lt;li&gt;&lt;u style=&quot;background-color: initial;&quot;&gt;&lt;b&gt;flexbox&lt;/b&gt;&lt;/u&gt;&lt;br&gt;&lt;/li&gt;&lt;li&gt;House card divs held in the player&#39;s array&lt;/li&gt;&lt;/ul&gt;" style="text;html=1;align=left;verticalAlign=middle;whiteSpace=wrap;rounded=0;fillColor=default;" parent="1" vertex="1">
          <mxGeometry x="462.5" y="1500" width="295" height="40" as="geometry" />
        </mxCell>
        <mxCell id="WAIP1jLmQGmEaVy0-SmC-18" value="&lt;ul&gt;&lt;li&gt;&lt;u style=&quot;background-color: initial;&quot;&gt;&lt;b&gt;1x1 gridbox&lt;/b&gt;&lt;/u&gt;&lt;br&gt;&lt;/li&gt;&lt;li&gt;House cards captured. Stack on top of each other. Margin-left controlled by &lt;b&gt;&lt;u&gt;quasi-counter.css&lt;/u&gt;&lt;/b&gt;&lt;/li&gt;&lt;/ul&gt;" style="text;html=1;align=left;verticalAlign=middle;whiteSpace=wrap;rounded=0;fillColor=default;" parent="1" vertex="1">
          <mxGeometry x="462.5" y="1580" width="357.5" height="40" as="geometry" />
        </mxCell>
        <mxCell id="xNZhg-o5KCj8_s9lisYH-1" value="&lt;b&gt;Note&lt;/b&gt;：quasi-counter.css&lt;br&gt;Basically a file with:&amp;nbsp;&lt;br&gt;&lt;blockquote style=&quot;margin: 0 0 0 40px; border: none; padding: 0px;&quot;&gt;&lt;span style=&quot;background-color: initial;&quot;&gt;:nth-child(&lt;i&gt;int&lt;/i&gt;) {&lt;br&gt;&lt;/span&gt;&lt;span style=&quot;background-color: initial;&quot;&gt;&amp;nbsp; --index:&lt;i&gt;int&lt;/i&gt;;&lt;br&gt; &lt;/span&gt;&lt;span style=&quot;background-color: initial;&quot;&gt;}&lt;/span&gt;&lt;/blockquote&gt;&lt;span style=&quot;background-color: initial;&quot;&gt;So that each element (representation of Card instance) will have access to &lt;i&gt;&lt;b&gt;--index&lt;/b&gt;&lt;/i&gt; variable, which is used to control incremental margin of stacked captured card at div.capture&lt;br&gt;&lt;/span&gt;" style="text;html=1;align=left;verticalAlign=middle;whiteSpace=wrap;rounded=0;fillColor=default;" parent="1" vertex="1">
          <mxGeometry x="50" y="1530" width="295" height="150" as="geometry" />
        </mxCell>
        <mxCell id="xNZhg-o5KCj8_s9lisYH-2" value="" style="endArrow=none;dashed=1;html=1;dashPattern=1 3;strokeWidth=2;rounded=0;entryX=0;entryY=0.5;entryDx=0;entryDy=0;exitX=0.996;exitY=0.455;exitDx=0;exitDy=0;exitPerimeter=0;" parent="1" source="xNZhg-o5KCj8_s9lisYH-1" target="WAIP1jLmQGmEaVy0-SmC-18" edge="1">
          <mxGeometry width="50" height="50" relative="1" as="geometry">
            <mxPoint x="440" y="1670" as="sourcePoint" />
            <mxPoint x="490" y="1620" as="targetPoint" />
          </mxGeometry>
        </mxCell>
        <mxCell id="xNZhg-o5KCj8_s9lisYH-3" value="" style="rounded=0;whiteSpace=wrap;html=1;" parent="1" vertex="1">
          <mxGeometry x="465" y="1275" width="35" height="40" as="geometry" />
        </mxCell>
        <mxCell id="xNZhg-o5KCj8_s9lisYH-4" value="" style="rounded=0;whiteSpace=wrap;html=1;" parent="1" vertex="1">
          <mxGeometry x="475" y="1275" width="35" height="40" as="geometry" />
        </mxCell>
        <mxCell id="xNZhg-o5KCj8_s9lisYH-5" value="" style="rounded=0;whiteSpace=wrap;html=1;" parent="1" vertex="1">
          <mxGeometry x="482.5" y="1275" width="35" height="40" as="geometry" />
        </mxCell>
        <mxCell id="xNZhg-o5KCj8_s9lisYH-8" value="" style="edgeStyle=orthogonalEdgeStyle;rounded=0;orthogonalLoop=1;jettySize=auto;html=1;exitX=0;exitY=0.5;exitDx=0;exitDy=0;" parent="1" source="xNZhg-o5KCj8_s9lisYH-3" target="xNZhg-o5KCj8_s9lisYH-7" edge="1">
          <mxGeometry relative="1" as="geometry" />
        </mxCell>
        <mxCell id="xNZhg-o5KCj8_s9lisYH-6" value="" style="rounded=0;whiteSpace=wrap;html=1;" parent="1" vertex="1">
          <mxGeometry x="494" y="1275" width="35" height="40" as="geometry" />
        </mxCell>
        <mxCell id="xNZhg-o5KCj8_s9lisYH-7" value="div.hanafudaCards" style="text;html=1;strokeColor=#6c8ebf;fillColor=#dae8fc;align=center;verticalAlign=middle;whiteSpace=wrap;rounded=0;" parent="1" vertex="1">
          <mxGeometry x="70" y="1280" width="120" height="30" as="geometry" />
        </mxCell>
        <mxCell id="xNZhg-o5KCj8_s9lisYH-9" value="&lt;ul&gt;&lt;li&gt;Represent a single card&lt;/li&gt;&lt;li&gt;when :hover, z-axis = 99&lt;/li&gt;&lt;li&gt;depending on value of faceUp property passed to renderCard, may have image as background-image to show flipped/closed card&lt;/li&gt;&lt;/ul&gt;" style="text;html=1;align=left;verticalAlign=middle;whiteSpace=wrap;rounded=0;fillColor=default;" parent="1" vertex="1">
          <mxGeometry x="70" y="1320" width="330" height="100" as="geometry" />
        </mxCell>
      </root>
    </mxGraphModel>
  </diagram>
  <diagram id="EUWFbrqVmCGXuP3cs7j5" name="Inheritance Tree">
    <mxGraphModel dx="805" dy="1155" grid="1" gridSize="10" guides="1" tooltips="1" connect="1" arrows="1" fold="1" page="1" pageScale="1" pageWidth="850" pageHeight="1100" math="0" shadow="0">
      <root>
        <mxCell id="0" />
        <mxCell id="1" parent="0" />
        <mxCell id="pMTwOd9o7q7Hd78YSrX8-1" value="Card Deck" style="rounded=0;whiteSpace=wrap;html=1;fillColor=#d5e8d4;strokeColor=#82b366;fontSize=15;align=center;fontStyle=0" parent="1" vertex="1">
          <mxGeometry x="280" y="40" width="120" height="30" as="geometry" />
        </mxCell>
        <mxCell id="WfxkD-wwLK83oQxa9M1w-8" style="edgeStyle=orthogonalEdgeStyle;rounded=0;orthogonalLoop=1;jettySize=auto;html=1;entryX=0.5;entryY=0;entryDx=0;entryDy=0;" parent="1" source="pMTwOd9o7q7Hd78YSrX8-2" target="WfxkD-wwLK83oQxa9M1w-1" edge="1">
          <mxGeometry relative="1" as="geometry">
            <Array as="points">
              <mxPoint x="435" y="650" />
              <mxPoint x="110" y="650" />
            </Array>
          </mxGeometry>
        </mxCell>
        <mxCell id="pMTwOd9o7q7Hd78YSrX8-2" value="Card" style="rounded=0;whiteSpace=wrap;html=1;fillColor=#d5e8d4;strokeColor=#82b366;fontSize=15;align=center;fontStyle=0" parent="1" vertex="1">
          <mxGeometry x="375" y="570" width="120" height="30" as="geometry" />
        </mxCell>
        <mxCell id="WfxkD-wwLK83oQxa9M1w-1" value="&lt;strike&gt;HanafudaCard&lt;/strike&gt;" style="rounded=0;whiteSpace=wrap;html=1;fillColor=#d5e8d4;strokeColor=#82b366;fontSize=15;align=center;fontStyle=0" parent="1" vertex="1">
          <mxGeometry x="50" y="690" width="120" height="30" as="geometry" />
        </mxCell>
        <mxCell id="WfxkD-wwLK83oQxa9M1w-2" value="Hikari" style="rounded=0;whiteSpace=wrap;html=1;fillColor=#d5e8d4;strokeColor=#82b366;fontSize=15;align=center;fontStyle=0" parent="1" vertex="1">
          <mxGeometry x="210" y="690" width="120" height="30" as="geometry" />
        </mxCell>
        <mxCell id="WfxkD-wwLK83oQxa9M1w-3" value="Tane" style="rounded=0;whiteSpace=wrap;html=1;fillColor=#d5e8d4;strokeColor=#82b366;fontSize=15;align=center;fontStyle=0" parent="1" vertex="1">
          <mxGeometry x="375" y="690" width="120" height="30" as="geometry" />
        </mxCell>
        <mxCell id="WfxkD-wwLK83oQxa9M1w-4" value="Tanzaku" style="rounded=0;whiteSpace=wrap;html=1;fillColor=#d5e8d4;strokeColor=#82b366;fontSize=15;align=center;fontStyle=0" parent="1" vertex="1">
          <mxGeometry x="680" y="690" width="120" height="30" as="geometry" />
        </mxCell>
        <mxCell id="WfxkD-wwLK83oQxa9M1w-5" value="Kasu" style="rounded=0;whiteSpace=wrap;html=1;fillColor=#d5e8d4;strokeColor=#82b366;fontSize=15;align=center;fontStyle=0" parent="1" vertex="1">
          <mxGeometry x="530" y="690" width="120" height="30" as="geometry" />
        </mxCell>
        <mxCell id="WfxkD-wwLK83oQxa9M1w-6" value="HanafudaGameOptions" style="rounded=0;whiteSpace=wrap;html=1;fillColor=#d5e8d4;strokeColor=#82b366;fontSize=15;align=center;fontStyle=0" parent="1" vertex="1">
          <mxGeometry x="510" y="40" width="190" height="30" as="geometry" />
        </mxCell>
        <mxCell id="WfxkD-wwLK83oQxa9M1w-9" style="edgeStyle=orthogonalEdgeStyle;rounded=0;orthogonalLoop=1;jettySize=auto;html=1;entryX=0.5;entryY=0;entryDx=0;entryDy=0;exitX=0.5;exitY=1;exitDx=0;exitDy=0;" parent="1" source="pMTwOd9o7q7Hd78YSrX8-2" target="WfxkD-wwLK83oQxa9M1w-2" edge="1">
          <mxGeometry relative="1" as="geometry">
            <mxPoint x="445" y="610" as="sourcePoint" />
            <mxPoint x="120" y="700" as="targetPoint" />
            <Array as="points">
              <mxPoint x="435" y="650" />
              <mxPoint x="270" y="650" />
            </Array>
          </mxGeometry>
        </mxCell>
        <mxCell id="WfxkD-wwLK83oQxa9M1w-10" value="" style="endArrow=classic;html=1;rounded=0;exitX=0.5;exitY=1;exitDx=0;exitDy=0;entryX=0.5;entryY=0;entryDx=0;entryDy=0;" parent="1" source="pMTwOd9o7q7Hd78YSrX8-2" target="WfxkD-wwLK83oQxa9M1w-3" edge="1">
          <mxGeometry width="50" height="50" relative="1" as="geometry">
            <mxPoint x="510" y="870" as="sourcePoint" />
            <mxPoint x="560" y="820" as="targetPoint" />
          </mxGeometry>
        </mxCell>
        <mxCell id="WfxkD-wwLK83oQxa9M1w-11" value="" style="endArrow=classic;html=1;rounded=0;exitX=0.5;exitY=1;exitDx=0;exitDy=0;entryX=0.5;entryY=0;entryDx=0;entryDy=0;" parent="1" source="pMTwOd9o7q7Hd78YSrX8-2" target="WfxkD-wwLK83oQxa9M1w-5" edge="1">
          <mxGeometry width="50" height="50" relative="1" as="geometry">
            <mxPoint x="510" y="870" as="sourcePoint" />
            <mxPoint x="560" y="820" as="targetPoint" />
            <Array as="points">
              <mxPoint x="435" y="650" />
              <mxPoint x="590" y="650" />
            </Array>
          </mxGeometry>
        </mxCell>
        <mxCell id="WfxkD-wwLK83oQxa9M1w-12" value="" style="endArrow=classic;html=1;rounded=0;exitX=0.5;exitY=1;exitDx=0;exitDy=0;entryX=0.5;entryY=0;entryDx=0;entryDy=0;" parent="1" source="pMTwOd9o7q7Hd78YSrX8-2" target="WfxkD-wwLK83oQxa9M1w-4" edge="1">
          <mxGeometry width="50" height="50" relative="1" as="geometry">
            <mxPoint x="430" y="600" as="sourcePoint" />
            <mxPoint x="560" y="820" as="targetPoint" />
            <Array as="points">
              <mxPoint x="435" y="650" />
              <mxPoint x="740" y="650" />
            </Array>
          </mxGeometry>
        </mxCell>
        <mxCell id="XVvsj3dJfScq_qU04Fmv-3" value="" style="edgeStyle=orthogonalEdgeStyle;rounded=0;orthogonalLoop=1;jettySize=auto;html=1;" parent="1" source="XVvsj3dJfScq_qU04Fmv-1" target="XVvsj3dJfScq_qU04Fmv-2" edge="1">
          <mxGeometry relative="1" as="geometry" />
        </mxCell>
        <mxCell id="XVvsj3dJfScq_qU04Fmv-1" value="CardGame" style="rounded=0;whiteSpace=wrap;html=1;fillColor=#d5e8d4;strokeColor=#82b366;fontSize=15;align=center;fontStyle=0" parent="1" vertex="1">
          <mxGeometry x="330" y="130" width="190" height="30" as="geometry" />
        </mxCell>
        <mxCell id="XVvsj3dJfScq_qU04Fmv-2" value="Hanafuda" style="rounded=0;whiteSpace=wrap;html=1;fillColor=#d5e8d4;strokeColor=#82b366;fontSize=15;align=center;fontStyle=0" parent="1" vertex="1">
          <mxGeometry x="330" y="200" width="190" height="30" as="geometry" />
        </mxCell>
        <mxCell id="XVvsj3dJfScq_qU04Fmv-9" style="edgeStyle=orthogonalEdgeStyle;rounded=0;orthogonalLoop=1;jettySize=auto;html=1;" parent="1" source="XVvsj3dJfScq_qU04Fmv-4" target="XVvsj3dJfScq_qU04Fmv-5" edge="1">
          <mxGeometry relative="1" as="geometry">
            <Array as="points">
              <mxPoint x="425" y="380" />
              <mxPoint x="315" y="380" />
            </Array>
          </mxGeometry>
        </mxCell>
        <mxCell id="XVvsj3dJfScq_qU04Fmv-4" value="CardHoldingEntity" style="rounded=0;whiteSpace=wrap;html=1;fillColor=#d5e8d4;strokeColor=#82b366;fontSize=15;align=center;fontStyle=0" parent="1" vertex="1">
          <mxGeometry x="330" y="320" width="190" height="30" as="geometry" />
        </mxCell>
        <mxCell id="XVvsj3dJfScq_qU04Fmv-5" value="Field" style="rounded=0;whiteSpace=wrap;html=1;fillColor=#d5e8d4;strokeColor=#82b366;fontSize=15;align=center;fontStyle=0" parent="1" vertex="1">
          <mxGeometry x="220" y="400" width="190" height="30" as="geometry" />
        </mxCell>
        <mxCell id="XVvsj3dJfScq_qU04Fmv-11" value="" style="edgeStyle=orthogonalEdgeStyle;rounded=0;orthogonalLoop=1;jettySize=auto;html=1;" parent="1" source="XVvsj3dJfScq_qU04Fmv-6" target="XVvsj3dJfScq_qU04Fmv-7" edge="1">
          <mxGeometry relative="1" as="geometry" />
        </mxCell>
        <mxCell id="XVvsj3dJfScq_qU04Fmv-6" value="Player" style="rounded=0;whiteSpace=wrap;html=1;fillColor=#d5e8d4;strokeColor=#82b366;fontSize=15;align=center;fontStyle=0" parent="1" vertex="1">
          <mxGeometry x="460" y="400" width="190" height="30" as="geometry" />
        </mxCell>
        <mxCell id="XVvsj3dJfScq_qU04Fmv-7" value="CPU" style="rounded=0;whiteSpace=wrap;html=1;fillColor=#d5e8d4;strokeColor=#82b366;fontSize=15;align=center;fontStyle=0" parent="1" vertex="1">
          <mxGeometry x="460" y="470" width="190" height="30" as="geometry" />
        </mxCell>
        <mxCell id="XVvsj3dJfScq_qU04Fmv-10" value="" style="endArrow=classic;html=1;rounded=0;exitX=0.5;exitY=1;exitDx=0;exitDy=0;entryX=0.5;entryY=0;entryDx=0;entryDy=0;" parent="1" source="XVvsj3dJfScq_qU04Fmv-4" target="XVvsj3dJfScq_qU04Fmv-6" edge="1">
          <mxGeometry width="50" height="50" relative="1" as="geometry">
            <mxPoint x="250" y="560" as="sourcePoint" />
            <mxPoint x="300" y="510" as="targetPoint" />
            <Array as="points">
              <mxPoint x="425" y="380" />
              <mxPoint x="555" y="380" />
            </Array>
          </mxGeometry>
        </mxCell>
        <mxCell id="l1GmsV2qMZ2sMekJTu1h-1" value="" style="endArrow=none;html=1;rounded=0;" edge="1" parent="1">
          <mxGeometry width="50" height="50" relative="1" as="geometry">
            <mxPoint x="60" y="540" as="sourcePoint" />
            <mxPoint x="840" y="540" as="targetPoint" />
          </mxGeometry>
        </mxCell>
        <mxCell id="l1GmsV2qMZ2sMekJTu1h-2" value="" style="endArrow=none;html=1;rounded=0;" edge="1" parent="1">
          <mxGeometry width="50" height="50" relative="1" as="geometry">
            <mxPoint x="50" y="270" as="sourcePoint" />
            <mxPoint x="830" y="270" as="targetPoint" />
          </mxGeometry>
        </mxCell>
        <mxCell id="l1GmsV2qMZ2sMekJTu1h-3" value="" style="endArrow=none;html=1;rounded=0;" edge="1" parent="1">
          <mxGeometry width="50" height="50" relative="1" as="geometry">
            <mxPoint x="40" y="100" as="sourcePoint" />
            <mxPoint x="820" y="100" as="targetPoint" />
          </mxGeometry>
        </mxCell>
        <mxCell id="sUBqIiUGqzQ78SvKAcsR-1" value="Never used" style="text;html=1;strokeColor=none;fillColor=none;align=center;verticalAlign=middle;whiteSpace=wrap;rounded=0;" vertex="1" parent="1">
          <mxGeometry x="50" y="720" width="80" height="20" as="geometry" />
        </mxCell>
      </root>
    </mxGraphModel>
  </diagram>
  <diagram id="bsyLec7ojtYMILisq_ax" name="Classes">
    <mxGraphModel dx="599" dy="815" grid="1" gridSize="10" guides="1" tooltips="1" connect="1" arrows="1" fold="1" page="1" pageScale="1" pageWidth="850" pageHeight="1100" math="0" shadow="0">
      <root>
        <mxCell id="0" />
        <mxCell id="1" parent="0" />
        <mxCell id="_wq3pW8mDmLb4LpKICs8-1" value="CardDeck(everyCards,areaInDOM)" style="rounded=0;whiteSpace=wrap;html=1;fillColor=#d5e8d4;strokeColor=#82b366;" parent="1" vertex="1">
          <mxGeometry x="40" y="120" width="230" height="40" as="geometry" />
        </mxCell>
        <mxCell id="_wq3pW8mDmLb4LpKICs8-2" value="Card(id,cardName,width,height)" style="rounded=0;whiteSpace=wrap;html=1;fillColor=#d5e8d4;strokeColor=#82b366;" parent="1" vertex="1">
          <mxGeometry x="720" y="120" width="200" height="40" as="geometry" />
        </mxCell>
        <mxCell id="_wq3pW8mDmLb4LpKICs8-3" value="&lt;strike&gt;HanafudaCard(categ,id,cardName)&lt;/strike&gt;" style="rounded=0;whiteSpace=wrap;html=1;fillColor=#d5e8d4;strokeColor=#82b366;" parent="1" vertex="1">
          <mxGeometry x="1620" y="120" width="210" height="40" as="geometry" />
        </mxCell>
        <mxCell id="_wq3pW8mDmLb4LpKICs8-8" value="HanafudaGameOptions()" style="rounded=0;whiteSpace=wrap;html=1;fillColor=#d5e8d4;strokeColor=#82b366;" parent="1" vertex="1">
          <mxGeometry x="40" y="1105" width="190" height="40" as="geometry" />
        </mxCell>
        <mxCell id="_wq3pW8mDmLb4LpKICs8-9" value="&lt;b&gt;Legend&lt;/b&gt;" style="text;html=1;strokeColor=none;fillColor=none;align=center;verticalAlign=middle;whiteSpace=wrap;rounded=0;" parent="1" vertex="1">
          <mxGeometry width="60" height="30" as="geometry" />
        </mxCell>
        <mxCell id="_wq3pW8mDmLb4LpKICs8-10" value="Constructor" style="rounded=0;whiteSpace=wrap;html=1;fillColor=#d5e8d4;strokeColor=#82b366;" parent="1" vertex="1">
          <mxGeometry x="10" y="40" width="90" height="30" as="geometry" />
        </mxCell>
        <mxCell id="_wq3pW8mDmLb4LpKICs8-11" value="Static Method" style="rounded=0;whiteSpace=wrap;html=1;fillColor=#e1d5e7;strokeColor=#9673a6;" parent="1" vertex="1">
          <mxGeometry x="350" y="40" width="110" height="30" as="geometry" />
        </mxCell>
        <mxCell id="_wq3pW8mDmLb4LpKICs8-12" value="Instance Prop." style="rounded=0;whiteSpace=wrap;html=1;fillColor=#fff2cc;strokeColor=#d6b656;" parent="1" vertex="1">
          <mxGeometry x="110" y="40" width="110" height="30" as="geometry" />
        </mxCell>
        <mxCell id="_wq3pW8mDmLb4LpKICs8-13" value="Instance Method" style="rounded=0;whiteSpace=wrap;html=1;fillColor=#f8cecc;strokeColor=#b85450;" parent="1" vertex="1">
          <mxGeometry x="230" y="40" width="110" height="30" as="geometry" />
        </mxCell>
        <mxCell id="_wq3pW8mDmLb4LpKICs8-15" value="Static Prop." style="rounded=0;whiteSpace=wrap;html=1;fillColor=#ffe6cc;strokeColor=#d79b00;" parent="1" vertex="1">
          <mxGeometry x="470" y="40" width="110" height="30" as="geometry" />
        </mxCell>
        <mxCell id="_wq3pW8mDmLb4LpKICs8-16" value="Getter" style="rounded=0;whiteSpace=wrap;html=1;fillColor=#dae8fc;strokeColor=#6c8ebf;" parent="1" vertex="1">
          <mxGeometry x="590" y="40" width="110" height="30" as="geometry" />
        </mxCell>
        <mxCell id="_wq3pW8mDmLb4LpKICs8-17" value="Setter" style="rounded=0;whiteSpace=wrap;html=1;fillColor=#FFCCE6;strokeColor=#bf6e9d;" parent="1" vertex="1">
          <mxGeometry x="710" y="40" width="110" height="30" as="geometry" />
        </mxCell>
        <mxCell id="_wq3pW8mDmLb4LpKICs8-18" value="remainingCardCount" style="rounded=0;whiteSpace=wrap;html=1;fillColor=#dae8fc;strokeColor=#6c8ebf;" parent="1" vertex="1">
          <mxGeometry x="40" y="632.5" width="130" height="30" as="geometry" />
        </mxCell>
        <mxCell id="_wq3pW8mDmLb4LpKICs8-19" value="#deck" style="rounded=0;whiteSpace=wrap;html=1;fillColor=#fff2cc;strokeColor=#d6b656;" parent="1" vertex="1">
          <mxGeometry x="40" y="342.5" width="110" height="30" as="geometry" />
        </mxCell>
        <mxCell id="_wq3pW8mDmLb4LpKICs8-20" value="&amp;nbsp;#areaInDOM" style="rounded=0;whiteSpace=wrap;html=1;fillColor=#fff2cc;strokeColor=#d6b656;" parent="1" vertex="1">
          <mxGeometry x="40" y="392.5" width="110" height="30" as="geometry" />
        </mxCell>
        <mxCell id="_wq3pW8mDmLb4LpKICs8-21" value="accessElement()" style="rounded=0;whiteSpace=wrap;html=1;fillColor=#f8cecc;strokeColor=#b85450;" parent="1" vertex="1">
          <mxGeometry x="40" y="692.5" width="110" height="30" as="geometry" />
        </mxCell>
        <mxCell id="_wq3pW8mDmLb4LpKICs8-22" value="shuffle()" style="rounded=0;whiteSpace=wrap;html=1;fillColor=#f8cecc;strokeColor=#b85450;" parent="1" vertex="1">
          <mxGeometry x="40" y="752.5" width="110" height="30" as="geometry" />
        </mxCell>
        <mxCell id="_wq3pW8mDmLb4LpKICs8-24" value="" style="endArrow=none;dashed=1;html=1;dashPattern=1 3;strokeWidth=2;rounded=0;strokeColor=#ff0000;" parent="1" edge="1">
          <mxGeometry width="50" height="50" relative="1" as="geometry">
            <mxPoint x="860" y="54.739999999999995" as="sourcePoint" />
            <mxPoint x="910" y="54.739999999999995" as="targetPoint" />
          </mxGeometry>
        </mxCell>
        <mxCell id="_wq3pW8mDmLb4LpKICs8-25" value="instance of" style="text;html=1;strokeColor=none;fillColor=none;align=center;verticalAlign=middle;whiteSpace=wrap;rounded=0;" parent="1" vertex="1">
          <mxGeometry x="850" y="10" width="70" height="30" as="geometry" />
        </mxCell>
        <mxCell id="_wq3pW8mDmLb4LpKICs8-26" value="draw(qty)" style="rounded=0;whiteSpace=wrap;html=1;fillColor=#f8cecc;strokeColor=#b85450;" parent="1" vertex="1">
          <mxGeometry x="40" y="837.5" width="110" height="30" as="geometry" />
        </mxCell>
        <mxCell id="_wq3pW8mDmLb4LpKICs8-27" value="Remove the first n-number of card(s) stored in the array #deck and return an array containing the said card(s)&lt;br&gt;&lt;br&gt;&lt;b&gt;&lt;i&gt;qty&amp;nbsp; [integer]&lt;/i&gt; &lt;/b&gt;: number of cards to draw. Default = 1. NEVER pass argument &amp;gt; 1 when called mid game. If a number &amp;gt; #deck.length passed, the smaller number will be picked." style="text;html=1;align=left;verticalAlign=middle;whiteSpace=wrap;rounded=0;fillColor=default;" parent="1" vertex="1">
          <mxGeometry x="180" y="802.5" width="400" height="100" as="geometry" />
        </mxCell>
        <mxCell id="_wq3pW8mDmLb4LpKICs8-28" value="Return the HTMLElement stored in the private ins. prop #areaInDOM" style="text;html=1;align=left;verticalAlign=middle;whiteSpace=wrap;rounded=0;fillColor=default;" parent="1" vertex="1">
          <mxGeometry x="180" y="690" width="400" height="35" as="geometry" />
        </mxCell>
        <mxCell id="_wq3pW8mDmLb4LpKICs8-29" value="Return the length of the array stored in private ins. prop #deck" style="text;html=1;align=left;verticalAlign=middle;whiteSpace=wrap;rounded=0;fillColor=default;" parent="1" vertex="1">
          <mxGeometry x="180" y="630" width="400" height="35" as="geometry" />
        </mxCell>
        <mxCell id="_wq3pW8mDmLb4LpKICs8-30" value="Array containing instances of Card (Hikari, Tane, Tanzaku, Kasu)&amp;nbsp;" style="text;html=1;align=left;verticalAlign=middle;whiteSpace=wrap;rounded=0;fillColor=default;" parent="1" vertex="1">
          <mxGeometry x="180" y="340" width="400" height="35" as="geometry" />
        </mxCell>
        <mxCell id="_wq3pW8mDmLb4LpKICs8-31" value="" style="endArrow=none;dashed=1;html=1;dashPattern=1 3;strokeWidth=2;rounded=0;strokeColor=#0000ff;" parent="1" edge="1">
          <mxGeometry width="50" height="50" relative="1" as="geometry">
            <mxPoint x="970" y="54.739999999999995" as="sourcePoint" />
            <mxPoint x="1020" y="54.739999999999995" as="targetPoint" />
          </mxGeometry>
        </mxCell>
        <mxCell id="_wq3pW8mDmLb4LpKICs8-32" value="Array containing instances of" style="text;html=1;strokeColor=none;fillColor=none;align=center;verticalAlign=middle;whiteSpace=wrap;rounded=0;" parent="1" vertex="1">
          <mxGeometry x="960" y="10" width="160" height="30" as="geometry" />
        </mxCell>
        <mxCell id="-3SrSywN7BVqroRS29hz-11" style="edgeStyle=orthogonalEdgeStyle;rounded=0;orthogonalLoop=1;jettySize=auto;html=1;entryX=0.5;entryY=0;entryDx=0;entryDy=0;" edge="1" parent="1" source="_wq3pW8mDmLb4LpKICs8-35" target="-3SrSywN7BVqroRS29hz-6">
          <mxGeometry relative="1" as="geometry" />
        </mxCell>
        <mxCell id="_wq3pW8mDmLb4LpKICs8-35" value="HTMLElement where contents of #deck will be rendered" style="text;html=1;align=left;verticalAlign=middle;whiteSpace=wrap;rounded=0;fillColor=default;" parent="1" vertex="1">
          <mxGeometry x="180" y="390" width="400" height="35" as="geometry" />
        </mxCell>
        <mxCell id="_wq3pW8mDmLb4LpKICs8-37" value="Shuffle the position of cards in the prop. array #deck. No return value." style="text;html=1;align=left;verticalAlign=middle;whiteSpace=wrap;rounded=0;fillColor=default;" parent="1" vertex="1">
          <mxGeometry x="180" y="752.5" width="400" height="30" as="geometry" />
        </mxCell>
        <mxCell id="_wq3pW8mDmLb4LpKICs8-38" value="renderDeck()" style="rounded=0;whiteSpace=wrap;html=1;fillColor=#f8cecc;strokeColor=#b85450;" parent="1" vertex="1">
          <mxGeometry x="40" y="957.5" width="110" height="30" as="geometry" />
        </mxCell>
        <mxCell id="_wq3pW8mDmLb4LpKICs8-39" value="Renders the representation of master deck in DOM:&lt;br&gt;&amp;lt;div id=&quot;deck&quot; lang=&quot;jp&quot; class=&quot;hanafudaCards&quot;&amp;gt;&amp;lt;/div&amp;gt;&lt;br&gt;&lt;br&gt;No return value.&lt;br&gt;&lt;br&gt;Whenever draw() is called mid game, the card drawn will be rendered as child of the &amp;lt;div&amp;gt;." style="text;html=1;align=left;verticalAlign=middle;whiteSpace=wrap;rounded=0;fillColor=default;" parent="1" vertex="1">
          <mxGeometry x="180" y="922.5" width="400" height="100" as="geometry" />
        </mxCell>
        <mxCell id="j_7v3O52D2Exr3Fm4YH1-1" value="cardId" style="rounded=0;whiteSpace=wrap;html=1;fillColor=#dae8fc;strokeColor=#6c8ebf;" parent="1" vertex="1">
          <mxGeometry x="720" y="817.5" width="120" height="30" as="geometry" />
        </mxCell>
        <mxCell id="j_7v3O52D2Exr3Fm4YH1-2" value="cardIdMonthNo" style="rounded=0;whiteSpace=wrap;html=1;fillColor=#dae8fc;strokeColor=#6c8ebf;" parent="1" vertex="1">
          <mxGeometry x="720" y="880" width="120" height="30" as="geometry" />
        </mxCell>
        <mxCell id="j_7v3O52D2Exr3Fm4YH1-3" value="cardFullName" style="rounded=0;whiteSpace=wrap;html=1;fillColor=#dae8fc;strokeColor=#6c8ebf;" parent="1" vertex="1">
          <mxGeometry x="720" y="935" width="120" height="30" as="geometry" />
        </mxCell>
        <mxCell id="j_7v3O52D2Exr3Fm4YH1-4" value="dimensionRatio" style="rounded=0;whiteSpace=wrap;html=1;fillColor=#dae8fc;strokeColor=#6c8ebf;" parent="1" vertex="1">
          <mxGeometry x="720" y="997.5" width="120" height="30" as="geometry" />
        </mxCell>
        <mxCell id="j_7v3O52D2Exr3Fm4YH1-5" value="associatedElement" style="rounded=0;whiteSpace=wrap;html=1;fillColor=#dae8fc;strokeColor=#6c8ebf;" parent="1" vertex="1">
          <mxGeometry x="720" y="1067.5" width="120" height="30" as="geometry" />
        </mxCell>
        <mxCell id="j_7v3O52D2Exr3Fm4YH1-7" value="Return dimension of the card (this.#width / this.#height).&lt;br&gt;Not used, suppossedly used to style the card dimension." style="text;html=1;align=left;verticalAlign=middle;whiteSpace=wrap;rounded=0;fillColor=default;" parent="1" vertex="1">
          <mxGeometry x="870" y="990" width="400" height="45" as="geometry" />
        </mxCell>
        <mxCell id="j_7v3O52D2Exr3Fm4YH1-8" value="#id" style="rounded=0;whiteSpace=wrap;html=1;fillColor=#fff2cc;strokeColor=#d6b656;" parent="1" vertex="1">
          <mxGeometry x="720" y="397.5" width="110" height="30" as="geometry" />
        </mxCell>
        <mxCell id="j_7v3O52D2Exr3Fm4YH1-9" value="#cardName" style="rounded=0;whiteSpace=wrap;html=1;fillColor=#fff2cc;strokeColor=#d6b656;" parent="1" vertex="1">
          <mxGeometry x="720" y="497.5" width="110" height="30" as="geometry" />
        </mxCell>
        <mxCell id="j_7v3O52D2Exr3Fm4YH1-10" value="#width" style="rounded=0;whiteSpace=wrap;html=1;fillColor=#fff2cc;strokeColor=#d6b656;" parent="1" vertex="1">
          <mxGeometry x="720" y="587.5" width="110" height="30" as="geometry" />
        </mxCell>
        <mxCell id="j_7v3O52D2Exr3Fm4YH1-11" value="#height" style="rounded=0;whiteSpace=wrap;html=1;fillColor=#fff2cc;strokeColor=#d6b656;" parent="1" vertex="1">
          <mxGeometry x="720" y="617.5" width="110" height="30" as="geometry" />
        </mxCell>
        <mxCell id="j_7v3O52D2Exr3Fm4YH1-12" value="#owner" style="rounded=0;whiteSpace=wrap;html=1;fillColor=#fff2cc;strokeColor=#d6b656;" parent="1" vertex="1">
          <mxGeometry x="720" y="680" width="110" height="30" as="geometry" />
        </mxCell>
        <mxCell id="j_7v3O52D2Exr3Fm4YH1-13" value="#associatedElement" style="rounded=0;whiteSpace=wrap;html=1;fillColor=#fff2cc;strokeColor=#d6b656;" parent="1" vertex="1">
          <mxGeometry x="720" y="750" width="130" height="30" as="geometry" />
        </mxCell>
        <mxCell id="j_7v3O52D2Exr3Fm4YH1-14" value="An instance of Player or Field.&lt;br&gt;By default is a &quot;Deck&quot; string.&lt;br&gt;Modified via instance method &lt;b&gt;updateOwner(entity)&lt;/b&gt;" style="text;html=1;align=left;verticalAlign=middle;whiteSpace=wrap;rounded=0;fillColor=default;" parent="1" vertex="1">
          <mxGeometry x="870" y="662.5" width="400" height="65" as="geometry" />
        </mxCell>
        <mxCell id="j_7v3O52D2Exr3Fm4YH1-15" value="An HTMLElement. By default is undefined.&lt;br&gt;Modified via instance method &lt;b&gt;linktoDOM(element)&lt;/b&gt;" style="text;html=1;align=left;verticalAlign=middle;whiteSpace=wrap;rounded=0;fillColor=default;" parent="1" vertex="1">
          <mxGeometry x="870" y="740" width="400" height="50" as="geometry" />
        </mxCell>
        <mxCell id="j_7v3O52D2Exr3Fm4YH1-16" value="getOwner()" style="rounded=0;whiteSpace=wrap;html=1;fillColor=#f8cecc;strokeColor=#b85450;" parent="1" vertex="1">
          <mxGeometry x="720" y="1302.5" width="110" height="30" as="geometry" />
        </mxCell>
        <mxCell id="j_7v3O52D2Exr3Fm4YH1-17" value="#getResourcePath()" style="rounded=0;whiteSpace=wrap;html=1;fillColor=#f8cecc;strokeColor=#b85450;" parent="1" vertex="1">
          <mxGeometry x="720" y="1367.5" width="130" height="30" as="geometry" />
        </mxCell>
        <mxCell id="j_7v3O52D2Exr3Fm4YH1-18" value="#animateCard(cardToAnimate,endLocation)" style="rounded=0;whiteSpace=wrap;html=1;fillColor=#e1d5e7;strokeColor=#9673a6;" parent="1" vertex="1">
          <mxGeometry x="720" y="1657.5" width="270" height="30" as="geometry" />
        </mxCell>
        <mxCell id="j_7v3O52D2Exr3Fm4YH1-19" value="Not used. Extremly wonky. Works by first create a screen size div. Then create a clone of the card to be moved. Determine the end point and then change the translate() CSS value until reach end point.&lt;br&gt;&lt;br&gt;No return value.&lt;br&gt;&lt;br&gt;&lt;b&gt;&lt;i&gt;cardToAnimate [Object]&lt;/i&gt;&lt;/b&gt; : Instance of the card to be moved around.&lt;br&gt;&lt;b&gt;&lt;i&gt;endLocation [Object]&lt;/i&gt;&lt;/b&gt; : Either instance of Card or Field" style="text;html=1;align=left;verticalAlign=middle;whiteSpace=wrap;rounded=0;fillColor=default;" parent="1" vertex="1">
          <mxGeometry x="720" y="1700" width="550" height="130" as="geometry" />
        </mxCell>
        <mxCell id="j_7v3O52D2Exr3Fm4YH1-20" value="renderCard({faceUp,listenerType })" style="rounded=0;whiteSpace=wrap;html=1;fillColor=#f8cecc;strokeColor=#b85450;" parent="1" vertex="1">
          <mxGeometry x="720" y="1427.5" width="225" height="30" as="geometry" />
        </mxCell>
        <mxCell id="gEqHyIg8g6ptcYwYQ4ne-1" value="CardGame(playerList,playArea,totalRounds)" style="rounded=0;whiteSpace=wrap;html=1;fillColor=#d5e8d4;strokeColor=#82b366;" parent="1" vertex="1">
          <mxGeometry x="30" y="2660" width="270" height="40" as="geometry" />
        </mxCell>
        <mxCell id="-3SrSywN7BVqroRS29hz-1" value="" style="rounded=0;whiteSpace=wrap;html=1;" vertex="1" parent="1">
          <mxGeometry x="58.34" y="452.5" width="200" height="50" as="geometry" />
        </mxCell>
        <mxCell id="-3SrSywN7BVqroRS29hz-2" value="" style="rounded=0;whiteSpace=wrap;html=1;" vertex="1" parent="1">
          <mxGeometry x="58.339999999999996" y="502.5" width="200" height="50" as="geometry" />
        </mxCell>
        <mxCell id="-3SrSywN7BVqroRS29hz-3" value="" style="rounded=0;whiteSpace=wrap;html=1;" vertex="1" parent="1">
          <mxGeometry x="58.34" y="552.5" width="200" height="50" as="geometry" />
        </mxCell>
        <mxCell id="-3SrSywN7BVqroRS29hz-4" value="&lt;b&gt;div.areaField&amp;nbsp;&lt;/b&gt;" style="text;html=1;strokeColor=#d6b656;fillColor=#fff2cc;align=center;verticalAlign=middle;whiteSpace=wrap;rounded=0;gradientColor=#ffd966;" vertex="1" parent="1">
          <mxGeometry x="73.34" y="512.5" width="170" height="30" as="geometry" />
        </mxCell>
        <mxCell id="-3SrSywN7BVqroRS29hz-5" value="" style="rounded=0;whiteSpace=wrap;html=1;" vertex="1" parent="1">
          <mxGeometry x="280" y="502.5" width="200" height="50" as="geometry" />
        </mxCell>
        <mxCell id="-3SrSywN7BVqroRS29hz-6" value="" style="rounded=0;whiteSpace=wrap;html=1;" vertex="1" parent="1">
          <mxGeometry x="280" y="502.5" width="80" height="50" as="geometry" />
        </mxCell>
        <mxCell id="-3SrSywN7BVqroRS29hz-17" style="edgeStyle=orthogonalEdgeStyle;rounded=0;orthogonalLoop=1;jettySize=auto;html=1;entryX=1;entryY=0.5;entryDx=0;entryDy=0;startArrow=classic;startFill=1;endArrow=none;endFill=0;exitX=0.5;exitY=1;exitDx=0;exitDy=0;" edge="1" parent="1" source="-3SrSywN7BVqroRS29hz-6" target="_wq3pW8mDmLb4LpKICs8-39">
          <mxGeometry relative="1" as="geometry">
            <mxPoint x="320" y="562.5" as="sourcePoint" />
            <Array as="points">
              <mxPoint x="320" y="602.5" />
              <mxPoint x="600" y="602.5" />
              <mxPoint x="600" y="972.5" />
            </Array>
          </mxGeometry>
        </mxCell>
        <mxCell id="-3SrSywN7BVqroRS29hz-7" value="&lt;b&gt;div.#deck&lt;/b&gt;" style="text;html=1;strokeColor=#d6b656;fillColor=#fff2cc;align=center;verticalAlign=middle;whiteSpace=wrap;rounded=0;gradientColor=#ffd966;" vertex="1" parent="1">
          <mxGeometry x="290" y="512.5" width="60" height="30" as="geometry" />
        </mxCell>
        <mxCell id="-3SrSywN7BVqroRS29hz-9" value="&lt;b&gt;div.#table&lt;/b&gt;" style="text;html=1;strokeColor=#d6b656;fillColor=#fff2cc;align=center;verticalAlign=middle;whiteSpace=wrap;rounded=0;gradientColor=#ffd966;" vertex="1" parent="1">
          <mxGeometry x="380" y="512.5" width="75" height="30" as="geometry" />
        </mxCell>
        <mxCell id="-3SrSywN7BVqroRS29hz-18" value="&lt;br&gt;Return an instance of CardDeck.&lt;br&gt;* Only ever called by Hanafuda class&#39;s instance method : newDeck()&lt;br&gt;&lt;br&gt;&lt;b style=&quot;&quot;&gt;&lt;i&gt;everyCards [array]&lt;/i&gt;&amp;nbsp;&lt;/b&gt;: Pass an array contaninig all cards of the game. In this case, 48 cards of varying Classes (Tane, Hikari, Tanzaku, Kasu) === value of #deck&lt;br&gt;&lt;br&gt;&lt;b&gt;&lt;i&gt;areaInDOM [HTMLElement]&lt;/i&gt;&lt;/b&gt; : Pass the HTML element where the deck will be rendered.&amp;nbsp; === value of #areaInDOM&lt;br&gt;&amp;nbsp;" style="text;html=1;align=left;verticalAlign=middle;whiteSpace=wrap;rounded=0;fillColor=default;" vertex="1" parent="1">
          <mxGeometry x="40" y="180" width="550" height="140" as="geometry" />
        </mxCell>
        <mxCell id="-3SrSywN7BVqroRS29hz-19" value="Unique string to identify the card. MUST match the actual asset name! Used to determine path to image resource.&lt;br&gt;Format: num_flower_type(_alphabet -- kasu type ONLY)&lt;br&gt;e.g.&amp;nbsp;01_matsu_kasu_a,&amp;nbsp;03_sakura_tanzaku" style="text;html=1;align=left;verticalAlign=middle;whiteSpace=wrap;rounded=0;fillColor=default;" vertex="1" parent="1">
          <mxGeometry x="870" y="372.5" width="400" height="80" as="geometry" />
        </mxCell>
        <mxCell id="-3SrSywN7BVqroRS29hz-20" value="Unique string of the card&#39;s name in Japanese. Furigana of the flower&#39;s kanji is enclosed in brackets (0xFF08,&amp;nbsp;0xFF09).&amp;nbsp;&lt;br&gt;e.g.&amp;nbsp;紅葉（もみじ）に青短&lt;br&gt;&lt;b&gt;Note&lt;/b&gt;: Suppossedly to be used for hover effect showing card name with furigana displayed as &amp;lt;ruby&amp;gt;. Never implemented. Hence this value is never used." style="text;html=1;align=left;verticalAlign=middle;whiteSpace=wrap;rounded=0;fillColor=default;" vertex="1" parent="1">
          <mxGeometry x="870" y="467.5" width="400" height="90" as="geometry" />
        </mxCell>
        <mxCell id="-3SrSywN7BVqroRS29hz-23" value="Number (Float/Int) representing the actual IRL width and height of the card. Any unit is ok, as long as both matches. &lt;br&gt;In my case,I use cm 3.2, 5.4" style="text;html=1;align=left;verticalAlign=middle;whiteSpace=wrap;rounded=0;fillColor=default;" vertex="1" parent="1">
          <mxGeometry x="870" y="587.5" width="400" height="50" as="geometry" />
        </mxCell>
        <mxCell id="-3SrSywN7BVqroRS29hz-25" value="NOT passed as argument of constructor()!" style="text;html=1;align=left;verticalAlign=middle;whiteSpace=wrap;rounded=0;fillColor=#ffffff;strokeColor=#b85450;" vertex="1" parent="1">
          <mxGeometry x="1310" y="707.5" width="110" height="50" as="geometry" />
        </mxCell>
        <mxCell id="-3SrSywN7BVqroRS29hz-26" value="Return value of private ins prop. #id" style="text;html=1;align=left;verticalAlign=middle;whiteSpace=wrap;rounded=0;fillColor=default;" vertex="1" parent="1">
          <mxGeometry x="870" y="812.5" width="400" height="40" as="geometry" />
        </mxCell>
        <mxCell id="-3SrSywN7BVqroRS29hz-27" value="Return the num part ofprivate ins prop.&amp;nbsp;#id as &lt;i&gt;&lt;b&gt;STRING&lt;/b&gt;&lt;/i&gt;, NOT Number." style="text;html=1;align=left;verticalAlign=middle;whiteSpace=wrap;rounded=0;fillColor=default;" vertex="1" parent="1">
          <mxGeometry x="870" y="870" width="400" height="40" as="geometry" />
        </mxCell>
        <mxCell id="-3SrSywN7BVqroRS29hz-28" value="Return value ofprivate ins prop. #cardName" style="text;html=1;align=left;verticalAlign=middle;whiteSpace=wrap;rounded=0;fillColor=default;" vertex="1" parent="1">
          <mxGeometry x="870" y="930" width="400" height="40" as="geometry" />
        </mxCell>
        <mxCell id="-3SrSywN7BVqroRS29hz-29" value="" style="endArrow=classic;html=1;rounded=0;entryX=0;entryY=0.5;entryDx=0;entryDy=0;exitX=1;exitY=0.5;exitDx=0;exitDy=0;" edge="1" parent="1" source="j_7v3O52D2Exr3Fm4YH1-14" target="-3SrSywN7BVqroRS29hz-25">
          <mxGeometry width="50" height="50" relative="1" as="geometry">
            <mxPoint x="1290" y="807.5" as="sourcePoint" />
            <mxPoint x="1340" y="757.5" as="targetPoint" />
            <Array as="points">
              <mxPoint x="1290" y="695.5" />
              <mxPoint x="1290" y="732.5" />
            </Array>
          </mxGeometry>
        </mxCell>
        <mxCell id="-3SrSywN7BVqroRS29hz-30" value="" style="endArrow=classic;html=1;rounded=0;entryX=0;entryY=0.5;entryDx=0;entryDy=0;exitX=1;exitY=0.5;exitDx=0;exitDy=0;" edge="1" parent="1" source="j_7v3O52D2Exr3Fm4YH1-15" target="-3SrSywN7BVqroRS29hz-25">
          <mxGeometry width="50" height="50" relative="1" as="geometry">
            <mxPoint x="1280" y="712.5" as="sourcePoint" />
            <mxPoint x="1320" y="742.5" as="targetPoint" />
            <Array as="points">
              <mxPoint x="1290" y="765.5" />
              <mxPoint x="1290" y="732.5" />
            </Array>
          </mxGeometry>
        </mxCell>
        <mxCell id="-3SrSywN7BVqroRS29hz-32" value="Return value ofprivate ins prop.&amp;nbsp;#associatedElement" style="text;html=1;align=left;verticalAlign=middle;whiteSpace=wrap;rounded=0;fillColor=default;" vertex="1" parent="1">
          <mxGeometry x="870" y="1060" width="400" height="45" as="geometry" />
        </mxCell>
        <mxCell id="-3SrSywN7BVqroRS29hz-33" value="" style="rounded=0;whiteSpace=wrap;html=1;" vertex="1" parent="1">
          <mxGeometry x="1355" y="980" width="200" height="80" as="geometry" />
        </mxCell>
        <mxCell id="-3SrSywN7BVqroRS29hz-37" value="" style="text;html=1;strokeColor=#d6b656;fillColor=#fff2cc;align=center;verticalAlign=middle;whiteSpace=wrap;rounded=0;gradientColor=#ffd966;" vertex="1" parent="1">
          <mxGeometry x="1365" y="990" width="90" height="30" as="geometry" />
        </mxCell>
        <mxCell id="-3SrSywN7BVqroRS29hz-38" value="" style="text;html=1;strokeColor=#d6b656;fillColor=#fff2cc;align=center;verticalAlign=middle;whiteSpace=wrap;rounded=0;gradientColor=#ffd966;" vertex="1" parent="1">
          <mxGeometry x="1465" y="990" width="20" height="30" as="geometry" />
        </mxCell>
        <mxCell id="-3SrSywN7BVqroRS29hz-39" value="" style="text;html=1;strokeColor=#d6b656;fillColor=#fff2cc;align=center;verticalAlign=middle;whiteSpace=wrap;rounded=0;gradientColor=#ffd966;" vertex="1" parent="1">
          <mxGeometry x="1495" y="990" width="20" height="30" as="geometry" />
        </mxCell>
        <mxCell id="-3SrSywN7BVqroRS29hz-40" value="" style="text;html=1;strokeColor=#d6b656;fillColor=#fff2cc;align=center;verticalAlign=middle;whiteSpace=wrap;rounded=0;gradientColor=#ffd966;" vertex="1" parent="1">
          <mxGeometry x="1525" y="990" width="20" height="30" as="geometry" />
        </mxCell>
        <mxCell id="-3SrSywN7BVqroRS29hz-41" value="" style="text;html=1;strokeColor=#d6b656;fillColor=#fff2cc;align=center;verticalAlign=middle;whiteSpace=wrap;rounded=0;gradientColor=#ffd966;" vertex="1" parent="1">
          <mxGeometry x="1365" y="1027.5" width="40" height="30" as="geometry" />
        </mxCell>
        <mxCell id="-3SrSywN7BVqroRS29hz-42" value="" style="text;html=1;strokeColor=#d79b00;fillColor=#ffcd28;align=center;verticalAlign=middle;whiteSpace=wrap;rounded=0;gradientColor=#ffa500;" vertex="1" parent="1">
          <mxGeometry x="1435" y="995" width="13.33" height="20" as="geometry" />
        </mxCell>
        <mxCell id="-3SrSywN7BVqroRS29hz-44" value="" style="text;html=1;strokeColor=#d79b00;fillColor=#ffcd28;align=center;verticalAlign=middle;whiteSpace=wrap;rounded=0;gradientColor=#ffa500;" vertex="1" parent="1">
          <mxGeometry x="1415" y="995" width="13.33" height="20" as="geometry" />
        </mxCell>
        <mxCell id="-3SrSywN7BVqroRS29hz-45" value="" style="text;html=1;strokeColor=#d79b00;fillColor=#ffcd28;align=center;verticalAlign=middle;whiteSpace=wrap;rounded=0;gradientColor=#ffa500;" vertex="1" parent="1">
          <mxGeometry x="1393.34" y="995" width="13.33" height="20" as="geometry" />
        </mxCell>
        <mxCell id="-3SrSywN7BVqroRS29hz-46" value="" style="text;html=1;strokeColor=#d79b00;fillColor=#ffcd28;align=center;verticalAlign=middle;whiteSpace=wrap;rounded=0;gradientColor=#ffa500;" vertex="1" parent="1">
          <mxGeometry x="1375" y="995" width="13.33" height="20" as="geometry" />
        </mxCell>
        <mxCell id="-3SrSywN7BVqroRS29hz-47" value="" style="text;html=1;strokeColor=#d79b00;fillColor=#ffcd28;align=center;verticalAlign=middle;whiteSpace=wrap;rounded=0;gradientColor=#ffa500;" vertex="1" parent="1">
          <mxGeometry x="1375" y="1032.5" width="13.33" height="20" as="geometry" />
        </mxCell>
        <mxCell id="-3SrSywN7BVqroRS29hz-48" value="" style="text;html=1;strokeColor=#d79b00;fillColor=#ffcd28;align=center;verticalAlign=middle;whiteSpace=wrap;rounded=0;gradientColor=#ffa500;" vertex="1" parent="1">
          <mxGeometry x="1380.01" y="1032.5" width="13.33" height="20" as="geometry" />
        </mxCell>
        <mxCell id="-3SrSywN7BVqroRS29hz-49" value="" style="text;html=1;strokeColor=#d79b00;fillColor=#ffcd28;align=center;verticalAlign=middle;whiteSpace=wrap;rounded=0;gradientColor=#ffa500;" vertex="1" parent="1">
          <mxGeometry x="1468.33" y="995" width="13.33" height="20" as="geometry" />
        </mxCell>
        <mxCell id="-3SrSywN7BVqroRS29hz-50" value="" style="text;html=1;strokeColor=#d79b00;fillColor=#ffcd28;align=center;verticalAlign=middle;whiteSpace=wrap;rounded=0;gradientColor=#ffa500;" vertex="1" parent="1">
          <mxGeometry x="1498.34" y="995" width="13.33" height="20" as="geometry" />
        </mxCell>
        <mxCell id="-3SrSywN7BVqroRS29hz-51" value="" style="text;html=1;strokeColor=#d79b00;fillColor=#ffcd28;align=center;verticalAlign=middle;whiteSpace=wrap;rounded=0;gradientColor=#ffa500;" vertex="1" parent="1">
          <mxGeometry x="1528.34" y="995" width="13.33" height="20" as="geometry" />
        </mxCell>
        <mxCell id="-3SrSywN7BVqroRS29hz-52" value="" style="text;html=1;strokeColor=#d79b00;fillColor=#ffcd28;align=center;verticalAlign=middle;whiteSpace=wrap;rounded=0;gradientColor=#ffa500;" vertex="1" parent="1">
          <mxGeometry x="1388.33" y="1032.5" width="13.33" height="20" as="geometry" />
        </mxCell>
        <mxCell id="-3SrSywN7BVqroRS29hz-53" value="div.hand" style="text;html=1;strokeColor=#d6b656;fillColor=#fff2cc;align=center;verticalAlign=middle;whiteSpace=wrap;rounded=0;gradientColor=#ffd966;" vertex="1" parent="1">
          <mxGeometry x="1428.33" y="1030" width="70" height="20" as="geometry" />
        </mxCell>
        <mxCell id="-3SrSywN7BVqroRS29hz-56" value="" style="endArrow=classic;html=1;rounded=0;entryX=0.5;entryY=1;entryDx=0;entryDy=0;exitX=0.5;exitY=0;exitDx=0;exitDy=0;" edge="1" parent="1" source="-3SrSywN7BVqroRS29hz-53" target="-3SrSywN7BVqroRS29hz-37">
          <mxGeometry width="50" height="50" relative="1" as="geometry">
            <mxPoint x="1365" y="1112.5" as="sourcePoint" />
            <mxPoint x="1415" y="1062.5" as="targetPoint" />
          </mxGeometry>
        </mxCell>
        <mxCell id="-3SrSywN7BVqroRS29hz-59" value="Renders the representation of Card instance in DOM.&lt;br&gt;Return the HTML element created.&lt;br&gt;&lt;br&gt;&lt;b&gt;&lt;i&gt;Option [Object]&lt;/i&gt;&lt;/b&gt; : Options to determine how the element rendered will be.&lt;br&gt;{&lt;br&gt;&lt;blockquote style=&quot;margin: 0 0 0 40px; border: none; padding: 0px;&quot;&gt;&lt;b&gt;&lt;i&gt;faceUp [Boolean]&lt;/i&gt;&lt;/b&gt; : true (default) / false depending on whether need do display card&#39;s image&lt;/blockquote&gt;&lt;blockquote style=&quot;margin: 0 0 0 40px; border: none; padding: 0px;&quot;&gt;&lt;br&gt;&lt;b&gt;&lt;i&gt;listenerType [String]&lt;/i&gt;&lt;/b&gt; : Determine what kind of event listener is needed for the rendered HTML element depending on who own that card.&lt;br&gt;&lt;u&gt;Possible Value&lt;/u&gt;: &quot;playerCard&quot;, &quot;tableCard&quot;, &quot;none&quot; (default)&lt;/blockquote&gt;}" style="text;html=1;align=left;verticalAlign=middle;whiteSpace=wrap;rounded=0;fillColor=default;" vertex="1" parent="1">
          <mxGeometry x="720" y="1467.5" width="550" height="172.5" as="geometry" />
        </mxCell>
        <mxCell id="-3SrSywN7BVqroRS29hz-61" value="linktoDOM(element)" style="rounded=0;whiteSpace=wrap;html=1;fillColor=#f8cecc;strokeColor=#b85450;" vertex="1" parent="1">
          <mxGeometry x="720" y="1148.75" width="130" height="30" as="geometry" />
        </mxCell>
        <mxCell id="-3SrSywN7BVqroRS29hz-62" value="Update the value ofprivate ins prop. #associatedElement. Only ever called by remderCard().&lt;br&gt;No return value.&lt;br&gt;&lt;br&gt;&lt;b&gt;&lt;i&gt;element [HTMLElement]&lt;/i&gt;&lt;/b&gt; : A HTML element representing the card instance" style="text;html=1;align=left;verticalAlign=middle;whiteSpace=wrap;rounded=0;fillColor=default;" vertex="1" parent="1">
          <mxGeometry x="870" y="1120" width="400" height="87.5" as="geometry" />
        </mxCell>
        <mxCell id="-3SrSywN7BVqroRS29hz-68" style="edgeStyle=orthogonalEdgeStyle;rounded=0;orthogonalLoop=1;jettySize=auto;html=1;entryX=0.5;entryY=0;entryDx=0;entryDy=0;" edge="1" parent="1" source="-3SrSywN7BVqroRS29hz-63" target="-3SrSywN7BVqroRS29hz-46">
          <mxGeometry relative="1" as="geometry" />
        </mxCell>
        <mxCell id="-3SrSywN7BVqroRS29hz-63" value="&lt;ul&gt;&lt;li&gt;&lt;span style=&quot;background-color: initial;&quot;&gt;Return by: #associatedElement,associatedElement&lt;/span&gt;&lt;/li&gt;&lt;li&gt;&lt;span style=&quot;background-color: initial;&quot;&gt;Passed to: linktoDOM()&lt;/span&gt;&lt;/li&gt;&lt;li&gt;&lt;span style=&quot;background-color: initial;&quot;&gt;Created &amp;amp; Return by: renderCard()&lt;/span&gt;&lt;/li&gt;&lt;/ul&gt;" style="text;html=1;align=left;verticalAlign=middle;whiteSpace=wrap;rounded=0;fillColor=default;" vertex="1" parent="1">
          <mxGeometry x="1340" y="865" width="270" height="67.5" as="geometry" />
        </mxCell>
        <mxCell id="-3SrSywN7BVqroRS29hz-64" value="updateOwner(entity)" style="rounded=0;whiteSpace=wrap;html=1;fillColor=#f8cecc;strokeColor=#b85450;" vertex="1" parent="1">
          <mxGeometry x="720" y="1236.25" width="135" height="30" as="geometry" />
        </mxCell>
        <mxCell id="-3SrSywN7BVqroRS29hz-65" value="Update the value ofprivate ins prop. #owner&lt;br&gt;No return value.&lt;br&gt;&lt;br&gt;&lt;b&gt;&lt;i&gt;entity [Object]&lt;/i&gt;&lt;/b&gt; : Instance of Player or Field class" style="text;html=1;align=left;verticalAlign=middle;whiteSpace=wrap;rounded=0;fillColor=default;" vertex="1" parent="1">
          <mxGeometry x="870" y="1218.75" width="400" height="65" as="geometry" />
        </mxCell>
        <mxCell id="-3SrSywN7BVqroRS29hz-66" value="Return value ofprivate ins prop. #owner" style="text;html=1;align=left;verticalAlign=middle;whiteSpace=wrap;rounded=0;fillColor=default;" vertex="1" parent="1">
          <mxGeometry x="870" y="1297.5" width="400" height="40" as="geometry" />
        </mxCell>
        <mxCell id="-3SrSywN7BVqroRS29hz-67" value="Return string containing the url of the card&#39;s image in the form &quot;url(...)&quot;" style="text;html=1;align=left;verticalAlign=middle;whiteSpace=wrap;rounded=0;fillColor=default;" vertex="1" parent="1">
          <mxGeometry x="870" y="1362.5" width="400" height="40" as="geometry" />
        </mxCell>
        <mxCell id="-3SrSywN7BVqroRS29hz-69" value="Return an instance of Card.&lt;br&gt;*Never called on its own. Only ever called in the form of super() when calling its descendant classes&#39; constructor()&lt;br&gt;&lt;br&gt;&lt;b&gt;&lt;i&gt;id [String]&lt;/i&gt;&lt;/b&gt; : Pass a string that uniquely identifies the card&lt;br&gt;&lt;br&gt;&lt;b&gt;&lt;i&gt;cardName [String]&lt;/i&gt;&lt;/b&gt; : Pass a string of the card&#39;s name&lt;br&gt;&lt;br&gt;&lt;b&gt;&lt;i&gt;width, height [Number]&lt;/i&gt;&lt;/b&gt; : Pass the real life dimension of the card without unit. Any unit is acceptable as long as they match each other." style="text;html=1;align=left;verticalAlign=middle;whiteSpace=wrap;rounded=0;fillColor=default;" vertex="1" parent="1">
          <mxGeometry x="720" y="180" width="550" height="160" as="geometry" />
        </mxCell>
        <mxCell id="VBxqcH_pADlNA4FLxNBb-1" value="Return an instance of HanafudaCard.&lt;br&gt;*Never used&lt;br&gt;&lt;br&gt;&lt;b&gt;categ [String]&lt;/b&gt; : Pass the category of the card (&quot;hikari&quot;, &quot;tane&quot;, &quot;tanzaku&quot;, &quot;kasu&quot;)&lt;br&gt;&lt;br&gt;&lt;b&gt;&lt;i&gt;id [String]&lt;/i&gt;&lt;/b&gt; : Pass a string that uniquely identifies the card&lt;br&gt;&lt;br&gt;&lt;b&gt;&lt;i&gt;cardName [String]&lt;/i&gt;&lt;/b&gt; : Pass a string of the card&#39;s name" style="text;html=1;align=left;verticalAlign=middle;whiteSpace=wrap;rounded=0;fillColor=default;" vertex="1" parent="1">
          <mxGeometry x="1640" y="175" width="550" height="135" as="geometry" />
        </mxCell>
        <mxCell id="oCD5oM184CMXDx0RaLnv-1" value="cardValue" style="rounded=0;whiteSpace=wrap;html=1;fillColor=#dae8fc;strokeColor=#6c8ebf;" vertex="1" parent="1">
          <mxGeometry x="1640" y="512.5" width="130" height="30" as="geometry" />
        </mxCell>
        <mxCell id="oCD5oM184CMXDx0RaLnv-2" value="Return a number of card&#39;s value (20, 10, 5, 1) depending on the value of ins prop. categ" style="text;html=1;align=left;verticalAlign=middle;whiteSpace=wrap;rounded=0;fillColor=default;" vertex="1" parent="1">
          <mxGeometry x="1790" y="500" width="400" height="55" as="geometry" />
        </mxCell>
        <mxCell id="oCD5oM184CMXDx0RaLnv-5" value="id" style="rounded=0;whiteSpace=wrap;html=1;fillColor=#fff2cc;strokeColor=#d6b656;" vertex="1" parent="1">
          <mxGeometry x="1640" y="395" width="110" height="30" as="geometry" />
        </mxCell>
        <mxCell id="oCD5oM184CMXDx0RaLnv-6" value="cardName" style="rounded=0;whiteSpace=wrap;html=1;fillColor=#fff2cc;strokeColor=#d6b656;" vertex="1" parent="1">
          <mxGeometry x="1640" y="450" width="110" height="30" as="geometry" />
        </mxCell>
        <mxCell id="oCD5oM184CMXDx0RaLnv-7" value="categ" style="rounded=0;whiteSpace=wrap;html=1;fillColor=#fff2cc;strokeColor=#d6b656;" vertex="1" parent="1">
          <mxGeometry x="1640" y="340" width="110" height="30" as="geometry" />
        </mxCell>
        <mxCell id="oCD5oM184CMXDx0RaLnv-8" value="Unique string to identify the card.&amp;nbsp;" style="text;html=1;align=left;verticalAlign=middle;whiteSpace=wrap;rounded=0;fillColor=default;" vertex="1" parent="1">
          <mxGeometry x="1790" y="390" width="400" height="40" as="geometry" />
        </mxCell>
        <mxCell id="oCD5oM184CMXDx0RaLnv-9" value="Unique string of the card&#39;s name in Japanese." style="text;html=1;align=left;verticalAlign=middle;whiteSpace=wrap;rounded=0;fillColor=default;" vertex="1" parent="1">
          <mxGeometry x="1790" y="445" width="400" height="40" as="geometry" />
        </mxCell>
        <mxCell id="oCD5oM184CMXDx0RaLnv-10" value="String of card type: &quot;hikari&quot;, &quot;tane&quot;, &quot;tanzaku&quot;, &quot;kasu&quot;" style="text;html=1;align=left;verticalAlign=middle;whiteSpace=wrap;rounded=0;fillColor=default;" vertex="1" parent="1">
          <mxGeometry x="1790" y="335" width="400" height="40" as="geometry" />
        </mxCell>
        <mxCell id="oCD5oM184CMXDx0RaLnv-11" value="Hikari(id,cardName)" style="rounded=0;whiteSpace=wrap;html=1;fillColor=#d5e8d4;strokeColor=#82b366;" vertex="1" parent="1">
          <mxGeometry x="1640" y="612.5" width="170" height="40" as="geometry" />
        </mxCell>
        <mxCell id="oCD5oM184CMXDx0RaLnv-12" value="Tane(id,cardName)" style="rounded=0;whiteSpace=wrap;html=1;fillColor=#d5e8d4;strokeColor=#82b366;" vertex="1" parent="1">
          <mxGeometry x="1820" y="612.5" width="170" height="40" as="geometry" />
        </mxCell>
        <mxCell id="oCD5oM184CMXDx0RaLnv-13" value="Tanzaku(id,cardName)" style="rounded=0;whiteSpace=wrap;html=1;fillColor=#d5e8d4;strokeColor=#82b366;" vertex="1" parent="1">
          <mxGeometry x="1640" y="662.5" width="170" height="40" as="geometry" />
        </mxCell>
        <mxCell id="oCD5oM184CMXDx0RaLnv-14" value="Kasu(id,cardName)" style="rounded=0;whiteSpace=wrap;html=1;fillColor=#d5e8d4;strokeColor=#82b366;" vertex="1" parent="1">
          <mxGeometry x="1820" y="662.5" width="170" height="40" as="geometry" />
        </mxCell>
        <mxCell id="oCD5oM184CMXDx0RaLnv-15" value="Return an instance of Hikari / tane /Tanzaku / Kasu.&lt;br&gt;Constructor just call super with additional fixed value of width, height (id,cardName,3.2,5.4)&lt;br&gt;* Should only be called by Hanafuda class&#39;s static #AllCards property&#39;s object&#39;s generator function. AKA when generating array of all cards&lt;br&gt;&lt;br&gt;&lt;br&gt;&lt;b&gt;&lt;i&gt;id [String]&lt;/i&gt;&lt;/b&gt; : Pass a string that uniquely identifies the card&lt;br&gt;&lt;br&gt;&lt;b&gt;&lt;i&gt;cardName [String]&lt;/i&gt;&lt;/b&gt; : Pass a string of the card&#39;s name" style="text;html=1;align=left;verticalAlign=middle;whiteSpace=wrap;rounded=0;fillColor=default;" vertex="1" parent="1">
          <mxGeometry x="1640" y="720" width="550" height="145" as="geometry" />
        </mxCell>
        <mxCell id="oCD5oM184CMXDx0RaLnv-16" value="cardCategory" style="rounded=0;whiteSpace=wrap;html=1;fillColor=#dae8fc;strokeColor=#6c8ebf;" vertex="1" parent="1">
          <mxGeometry x="1640" y="900" width="130" height="30" as="geometry" />
        </mxCell>
        <mxCell id="oCD5oM184CMXDx0RaLnv-17" value="cardValue" style="rounded=0;whiteSpace=wrap;html=1;fillColor=#dae8fc;strokeColor=#6c8ebf;" vertex="1" parent="1">
          <mxGeometry x="1640" y="970" width="130" height="30" as="geometry" />
        </mxCell>
        <mxCell id="oCD5oM184CMXDx0RaLnv-18" value="TBH..these are 4 classes repeating the same exact thing..... I continue this structure as I want to quicky count no of cards of particular type using &lt;i&gt;instanceof&lt;/i&gt;&amp;nbsp;rather than read their categ.. so I left HanafudaCard class unfinshed" style="text;html=1;align=left;verticalAlign=middle;whiteSpace=wrap;rounded=0;fillColor=#ffffff;strokeColor=#b85450;" vertex="1" parent="1">
          <mxGeometry x="2010" y="575" width="180" height="132.5" as="geometry" />
        </mxCell>
        <mxCell id="oCD5oM184CMXDx0RaLnv-19" value="Return string of the card&#39;s appropriate category&amp;nbsp;&amp;nbsp;(&quot;hikari&quot;, &quot;tane&quot;, &quot;tanzaku&quot;, &quot;kasu&quot;)" style="text;html=1;align=left;verticalAlign=middle;whiteSpace=wrap;rounded=0;fillColor=default;" vertex="1" parent="1">
          <mxGeometry x="1790" y="887.5" width="400" height="55" as="geometry" />
        </mxCell>
        <mxCell id="oCD5oM184CMXDx0RaLnv-20" value="Return number of the card&#39;s appropriate value&amp;nbsp; (20,10,5,1)" style="text;html=1;align=left;verticalAlign=middle;whiteSpace=wrap;rounded=0;fillColor=default;" vertex="1" parent="1">
          <mxGeometry x="1790" y="965" width="400" height="40" as="geometry" />
        </mxCell>
        <mxCell id="oCD5oM184CMXDx0RaLnv-21" value="" style="endArrow=none;dashed=1;html=1;dashPattern=1 3;strokeWidth=2;rounded=0;strokeColor=#ff0000;exitX=1;exitY=0.5;exitDx=0;exitDy=0;entryX=0;entryY=0.5;entryDx=0;entryDy=0;" edge="1" parent="1" source="_wq3pW8mDmLb4LpKICs8-2" target="oCD5oM184CMXDx0RaLnv-11">
          <mxGeometry width="50" height="50" relative="1" as="geometry">
            <mxPoint x="970" y="139.57" as="sourcePoint" />
            <mxPoint x="1020" y="139.57" as="targetPoint" />
            <Array as="points">
              <mxPoint x="1340" y="140" />
              <mxPoint x="1340" y="633" />
            </Array>
          </mxGeometry>
        </mxCell>
        <mxCell id="oCD5oM184CMXDx0RaLnv-23" value="" style="endArrow=none;dashed=1;html=1;dashPattern=1 3;strokeWidth=2;rounded=0;strokeColor=#0000ff;exitX=1;exitY=0.5;exitDx=0;exitDy=0;entryX=0;entryY=0.5;entryDx=0;entryDy=0;" edge="1" parent="1" source="_wq3pW8mDmLb4LpKICs8-30" target="_wq3pW8mDmLb4LpKICs8-2">
          <mxGeometry width="50" height="50" relative="1" as="geometry">
            <mxPoint x="600" y="330" as="sourcePoint" />
            <mxPoint x="650" y="330" as="targetPoint" />
            <Array as="points">
              <mxPoint x="640" y="357" />
              <mxPoint x="640" y="140" />
            </Array>
          </mxGeometry>
        </mxCell>
        <mxCell id="oCD5oM184CMXDx0RaLnv-24" value="#cardColor" style="rounded=0;whiteSpace=wrap;html=1;fillColor=#fff2cc;strokeColor=#d6b656;" vertex="1" parent="1">
          <mxGeometry x="40" y="1302.5" width="110" height="30" as="geometry" />
        </mxCell>
        <mxCell id="oCD5oM184CMXDx0RaLnv-25" value="#gameMode" style="rounded=0;whiteSpace=wrap;html=1;fillColor=#fff2cc;strokeColor=#d6b656;" vertex="1" parent="1">
          <mxGeometry x="40" y="1364.5" width="110" height="30" as="geometry" />
        </mxCell>
        <mxCell id="oCD5oM184CMXDx0RaLnv-26" value="#hanami" style="rounded=0;whiteSpace=wrap;html=1;fillColor=#fff2cc;strokeColor=#d6b656;" vertex="1" parent="1">
          <mxGeometry x="40" y="1422.5" width="110" height="30" as="geometry" />
        </mxCell>
        <mxCell id="oCD5oM184CMXDx0RaLnv-27" value="#tsukimi" style="rounded=0;whiteSpace=wrap;html=1;fillColor=#fff2cc;strokeColor=#d6b656;" vertex="1" parent="1">
          <mxGeometry x="40" y="1472.5" width="110" height="30" as="geometry" />
        </mxCell>
        <mxCell id="oCD5oM184CMXDx0RaLnv-28" value="#teshi" style="rounded=0;whiteSpace=wrap;html=1;fillColor=#fff2cc;strokeColor=#d6b656;" vertex="1" parent="1">
          <mxGeometry x="40" y="1527.5" width="110" height="30" as="geometry" />
        </mxCell>
        <mxCell id="oCD5oM184CMXDx0RaLnv-29" value="#kuttsuki" style="rounded=0;whiteSpace=wrap;html=1;fillColor=#fff2cc;strokeColor=#d6b656;" vertex="1" parent="1">
          <mxGeometry x="40" y="1577.5" width="110" height="30" as="geometry" />
        </mxCell>
        <mxCell id="oCD5oM184CMXDx0RaLnv-30" value="String determining the color of the card: &quot;alternate&quot; (default), &quot;traditional&quot;" style="text;html=1;align=left;verticalAlign=middle;whiteSpace=wrap;rounded=0;fillColor=default;" vertex="1" parent="1">
          <mxGeometry x="190" y="1297.5" width="400" height="40" as="geometry" />
        </mxCell>
        <mxCell id="oCD5oM184CMXDx0RaLnv-31" value="Return an instance of HanafudaGameOptions comes with a preset initial value. No parameter.&lt;br&gt;&lt;br&gt;Only way of changing instance props&#39; value is via ins method&amp;nbsp;&lt;b&gt;updateOptions()&lt;/b&gt; which will be called as player interact with the dialog option menu. If never interacted with the dialog, starting a new game will automatically create an instance with initial value.&lt;br&gt;&lt;br&gt;Stoted as a value of Hanafuda class&#39;s private ins prop. #gameOptions as well as a property of window object - window.hanafudaOptions" style="text;html=1;align=left;verticalAlign=middle;whiteSpace=wrap;rounded=0;fillColor=default;" vertex="1" parent="1">
          <mxGeometry x="40" y="1157.5" width="550" height="132.5" as="geometry" />
        </mxCell>
        <mxCell id="5WE4nvKNfCI_7bMhw4-X-1" value="String determining the game mode: &quot;12-rounds&quot; (default),&amp;nbsp;&quot;Till-50&quot; (Not Implemented)" style="text;html=1;align=left;verticalAlign=middle;whiteSpace=wrap;rounded=0;fillColor=default;" vertex="1" parent="1">
          <mxGeometry x="190" y="1356.5" width="400" height="46" as="geometry" />
        </mxCell>
        <mxCell id="5WE4nvKNfCI_7bMhw4-X-3" value="Boolean determining if 花見で一杯 rule is enabled." style="text;html=1;align=left;verticalAlign=middle;whiteSpace=wrap;rounded=0;fillColor=default;" vertex="1" parent="1">
          <mxGeometry x="190" y="1417.5" width="400" height="40" as="geometry" />
        </mxCell>
        <mxCell id="5WE4nvKNfCI_7bMhw4-X-4" value="Boolean determining if 月見で一杯 rule is enabled." style="text;html=1;align=left;verticalAlign=middle;whiteSpace=wrap;rounded=0;fillColor=default;" vertex="1" parent="1">
          <mxGeometry x="190" y="1467.5" width="400" height="40" as="geometry" />
        </mxCell>
        <mxCell id="5WE4nvKNfCI_7bMhw4-X-9" style="edgeStyle=orthogonalEdgeStyle;rounded=0;orthogonalLoop=1;jettySize=auto;html=1;entryX=0;entryY=0.5;entryDx=0;entryDy=0;" edge="1" parent="1" source="5WE4nvKNfCI_7bMhw4-X-5" target="5WE4nvKNfCI_7bMhw4-X-7">
          <mxGeometry relative="1" as="geometry" />
        </mxCell>
        <mxCell id="5WE4nvKNfCI_7bMhw4-X-5" value="Boolean determining if くっつき rule is enabled." style="text;html=1;align=left;verticalAlign=middle;whiteSpace=wrap;rounded=0;fillColor=default;" vertex="1" parent="1">
          <mxGeometry x="190" y="1572.5" width="270" height="40" as="geometry" />
        </mxCell>
        <mxCell id="5WE4nvKNfCI_7bMhw4-X-8" style="edgeStyle=orthogonalEdgeStyle;rounded=0;orthogonalLoop=1;jettySize=auto;html=1;entryX=0;entryY=0.5;entryDx=0;entryDy=0;" edge="1" parent="1" source="5WE4nvKNfCI_7bMhw4-X-6" target="5WE4nvKNfCI_7bMhw4-X-7">
          <mxGeometry relative="1" as="geometry" />
        </mxCell>
        <mxCell id="5WE4nvKNfCI_7bMhw4-X-6" value="Boolean determining if 手四 rule is enabled." style="text;html=1;align=left;verticalAlign=middle;whiteSpace=wrap;rounded=0;fillColor=default;" vertex="1" parent="1">
          <mxGeometry x="190" y="1522.5" width="270" height="40" as="geometry" />
        </mxCell>
        <mxCell id="5WE4nvKNfCI_7bMhw4-X-7" value="Not Implemented. Always false. I don&#39;t really know what these rules do." style="text;html=1;align=left;verticalAlign=middle;whiteSpace=wrap;rounded=0;fillColor=#ffffff;strokeColor=#b85450;" vertex="1" parent="1">
          <mxGeometry x="500" y="1542.5" width="140" height="50" as="geometry" />
        </mxCell>
        <mxCell id="5WE4nvKNfCI_7bMhw4-X-10" value="cardColor" style="rounded=0;whiteSpace=wrap;html=1;fillColor=#dae8fc;strokeColor=#6c8ebf;" vertex="1" parent="1">
          <mxGeometry x="40" y="1630" width="110" height="30" as="geometry" />
        </mxCell>
        <mxCell id="5WE4nvKNfCI_7bMhw4-X-11" value="gameMode" style="rounded=0;whiteSpace=wrap;html=1;fillColor=#dae8fc;strokeColor=#6c8ebf;" vertex="1" parent="1">
          <mxGeometry x="40" y="1687.5" width="110" height="30" as="geometry" />
        </mxCell>
        <mxCell id="5WE4nvKNfCI_7bMhw4-X-12" value="hanami" style="rounded=0;whiteSpace=wrap;html=1;fillColor=#dae8fc;strokeColor=#6c8ebf;" vertex="1" parent="1">
          <mxGeometry x="40" y="1742.5" width="110" height="30" as="geometry" />
        </mxCell>
        <mxCell id="5WE4nvKNfCI_7bMhw4-X-13" value="tsukimi" style="rounded=0;whiteSpace=wrap;html=1;fillColor=#dae8fc;strokeColor=#6c8ebf;" vertex="1" parent="1">
          <mxGeometry x="40" y="1795" width="110" height="30" as="geometry" />
        </mxCell>
        <mxCell id="5WE4nvKNfCI_7bMhw4-X-14" value="teshi" style="rounded=0;whiteSpace=wrap;html=1;fillColor=#dae8fc;strokeColor=#6c8ebf;" vertex="1" parent="1">
          <mxGeometry x="40" y="1850" width="110" height="30" as="geometry" />
        </mxCell>
        <mxCell id="5WE4nvKNfCI_7bMhw4-X-15" value="kuttsuki" style="rounded=0;whiteSpace=wrap;html=1;fillColor=#dae8fc;strokeColor=#6c8ebf;" vertex="1" parent="1">
          <mxGeometry x="40" y="1905" width="110" height="30" as="geometry" />
        </mxCell>
        <mxCell id="5WE4nvKNfCI_7bMhw4-X-16" value="Return value of private ins prop #cardColor" style="text;html=1;align=left;verticalAlign=middle;whiteSpace=wrap;rounded=0;fillColor=default;" vertex="1" parent="1">
          <mxGeometry x="190" y="1625" width="400" height="40" as="geometry" />
        </mxCell>
        <mxCell id="5WE4nvKNfCI_7bMhw4-X-18" value="Return value of private ins prop #gameMode" style="text;html=1;align=left;verticalAlign=middle;whiteSpace=wrap;rounded=0;fillColor=default;" vertex="1" parent="1">
          <mxGeometry x="190" y="1682.5" width="400" height="40" as="geometry" />
        </mxCell>
        <mxCell id="5WE4nvKNfCI_7bMhw4-X-19" value="Return value of private ins prop #hanami" style="text;html=1;align=left;verticalAlign=middle;whiteSpace=wrap;rounded=0;fillColor=default;" vertex="1" parent="1">
          <mxGeometry x="190" y="1737.5" width="400" height="40" as="geometry" />
        </mxCell>
        <mxCell id="5WE4nvKNfCI_7bMhw4-X-20" value="Return value of private ins prop #tsukimi" style="text;html=1;align=left;verticalAlign=middle;whiteSpace=wrap;rounded=0;fillColor=default;" vertex="1" parent="1">
          <mxGeometry x="190" y="1790" width="400" height="40" as="geometry" />
        </mxCell>
        <mxCell id="5WE4nvKNfCI_7bMhw4-X-21" value="Return value of private ins prop #teshi" style="text;html=1;align=left;verticalAlign=middle;whiteSpace=wrap;rounded=0;fillColor=default;" vertex="1" parent="1">
          <mxGeometry x="190" y="1845" width="400" height="40" as="geometry" />
        </mxCell>
        <mxCell id="5WE4nvKNfCI_7bMhw4-X-22" value="Return value of private ins prop #kuttsuki" style="text;html=1;align=left;verticalAlign=middle;whiteSpace=wrap;rounded=0;fillColor=default;" vertex="1" parent="1">
          <mxGeometry x="190" y="1900" width="400" height="40" as="geometry" />
        </mxCell>
        <mxCell id="5WE4nvKNfCI_7bMhw4-X-23" value="#AllGameOptions" style="rounded=0;whiteSpace=wrap;html=1;fillColor=#ffe6cc;strokeColor=#d79b00;" vertex="1" parent="1">
          <mxGeometry x="40" y="1970" width="110" height="30" as="geometry" />
        </mxCell>
        <mxCell id="5WE4nvKNfCI_7bMhw4-X-24" value="Contains an object with the following structure:&lt;br&gt;{&lt;br&gt;&lt;blockquote style=&quot;margin: 0 0 0 40px; border: none; padding: 0px;&quot;&gt;&lt;span style=&quot;background-color: initial;&quot;&gt;options category 1 :&lt;/span&gt;&lt;/blockquote&gt;&lt;blockquote style=&quot;margin: 0 0 0 40px; border: none; padding: 0px;&quot;&gt;&lt;blockquote style=&quot;margin: 0 0 0 40px; border: none; padding: 0px;&quot;&gt;[&lt;span style=&quot;background-color: initial;&quot;&gt;{&lt;/span&gt;&lt;/blockquote&gt;&lt;blockquote style=&quot;margin: 0 0 0 40px; border: none; padding: 0px;&quot;&gt;&lt;b style=&quot;background-color: initial;&quot;&gt;&lt;span style=&quot;white-space: pre;&quot;&gt;&#x9;&lt;/span&gt;controlName&lt;/b&gt;&lt;span style=&quot;background-color: initial;&quot;&gt;: name attr. of the input&lt;/span&gt;&lt;/blockquote&gt;&lt;blockquote style=&quot;margin: 0 0 0 40px; border: none; padding: 0px;&quot;&gt;&lt;b style=&quot;background-color: initial;&quot;&gt;&lt;span style=&quot;white-space: pre;&quot;&gt;&#x9;&lt;/span&gt;legendText&lt;/b&gt;&lt;span style=&quot;background-color: initial;&quot;&gt;: textContent of the fieldset legend&lt;/span&gt;&lt;/blockquote&gt;&lt;blockquote style=&quot;margin: 0 0 0 40px; border: none; padding: 0px;&quot;&gt;&lt;b style=&quot;background-color: initial;&quot;&gt;&lt;span style=&quot;white-space: pre;&quot;&gt;&#x9;&lt;/span&gt;data&lt;/b&gt;&lt;span style=&quot;background-color: initial;&quot;&gt;:[{&lt;/span&gt;&lt;/blockquote&gt;&lt;/blockquote&gt;&lt;blockquote style=&quot;margin: 0 0 0 40px; border: none; padding: 0px;&quot;&gt;&lt;blockquote style=&quot;margin: 0 0 0 40px; border: none; padding: 0px;&quot;&gt;&lt;blockquote style=&quot;margin: 0 0 0 40px; border: none; padding: 0px;&quot;&gt;&lt;span style=&quot;&quot;&gt;&lt;span style=&quot;&quot;&gt;&amp;nbsp;&amp;nbsp;&amp;nbsp;&amp;nbsp;&lt;/span&gt;&lt;/span&gt;&lt;span style=&quot;&quot;&gt;&lt;span style=&quot;&quot;&gt;&amp;nbsp;&amp;nbsp;&amp;nbsp;&amp;nbsp;&lt;/span&gt;&lt;/span&gt;&lt;span style=&quot;&quot;&gt;&amp;nbsp;&amp;nbsp;&amp;nbsp;&lt;i&gt;&amp;nbsp;&lt;/i&gt;&lt;/span&gt;&lt;i&gt;&lt;b&gt;labelText [String]&amp;nbsp;&lt;/b&gt;&lt;/i&gt;: textContent of the input&#39;s label&lt;br&gt;&lt;/blockquote&gt;&lt;blockquote style=&quot;margin: 0 0 0 40px; border: none; padding: 0px;&quot;&gt;&lt;span style=&quot;&quot;&gt;&lt;span style=&quot;&quot;&gt;&amp;nbsp;&amp;nbsp;&amp;nbsp;&amp;nbsp;&lt;/span&gt;&lt;/span&gt;&lt;span style=&quot;&quot;&gt;&lt;span style=&quot;&quot;&gt;&amp;nbsp;&amp;nbsp;&amp;nbsp;&amp;nbsp;&lt;/span&gt;&lt;/span&gt;&lt;span style=&quot;&quot;&gt;&amp;nbsp;&amp;nbsp;&amp;nbsp;&lt;i&gt;&amp;nbsp;&lt;/i&gt;&lt;/span&gt;&lt;b&gt;&lt;i&gt;id&amp;nbsp;&lt;/i&gt;&lt;i style=&quot;background-color: initial; border-color: var(--border-color);&quot;&gt;[String]&amp;nbsp;&lt;/i&gt;&lt;/b&gt;&lt;span style=&quot;background-color: initial;&quot;&gt;: id attr. of the input&lt;/span&gt;&lt;/blockquote&gt;&lt;blockquote style=&quot;margin: 0 0 0 40px; border: none; padding: 0px;&quot;&gt;&lt;span style=&quot;&quot;&gt;&lt;span style=&quot;&quot;&gt;&amp;nbsp;&amp;nbsp;&amp;nbsp;&amp;nbsp;&lt;/span&gt;&lt;/span&gt;&lt;span style=&quot;&quot;&gt;&lt;span style=&quot;&quot;&gt;&amp;nbsp;&amp;nbsp;&amp;nbsp;&amp;nbsp;&lt;/span&gt;&lt;/span&gt;&lt;span style=&quot;&quot;&gt;&lt;span style=&quot;&quot;&gt;&amp;nbsp;&amp;nbsp;&amp;nbsp;&amp;nbsp;&lt;/span&gt;&lt;/span&gt;&lt;i&gt;&lt;b&gt;value [String]&amp;nbsp;&lt;/b&gt;&lt;/i&gt;: value attr. of the input&lt;br&gt;&lt;/blockquote&gt;&lt;blockquote style=&quot;margin: 0 0 0 40px; border: none; padding: 0px;&quot;&gt;&lt;span style=&quot;&quot;&gt;&lt;span style=&quot;&quot;&gt;&amp;nbsp;&amp;nbsp;&amp;nbsp;&amp;nbsp;&lt;/span&gt;&lt;/span&gt;&lt;span style=&quot;&quot;&gt;&lt;span style=&quot;&quot;&gt;&amp;nbsp;&amp;nbsp;&amp;nbsp;&amp;nbsp;&lt;/span&gt;&lt;/span&gt;&lt;span style=&quot;&quot;&gt;&lt;span style=&quot;&quot;&gt;&amp;nbsp;&amp;nbsp;&amp;nbsp;&amp;nbsp;&lt;/span&gt;&lt;/span&gt;&lt;i&gt;&lt;b&gt;defaultSelect [Boolean]&amp;nbsp;&lt;/b&gt;&lt;/i&gt;: selected by default or not&lt;br&gt;&lt;/blockquote&gt;&lt;blockquote style=&quot;margin: 0 0 0 40px; border: none; padding: 0px;&quot;&gt;&lt;span style=&quot;&quot;&gt;&lt;span style=&quot;&quot;&gt;&amp;nbsp;&amp;nbsp;&amp;nbsp;&amp;nbsp;&lt;/span&gt;&lt;/span&gt;&lt;span style=&quot;&quot;&gt;&lt;span style=&quot;&quot;&gt;&amp;nbsp;&amp;nbsp;&amp;nbsp;&amp;nbsp;&lt;/span&gt;&lt;/span&gt;},{}] --&amp;gt; No. of object determines no of selection/input&lt;/blockquote&gt;&lt;blockquote style=&quot;margin: 0 0 0 40px; border: none; padding: 0px;&quot;&gt;&lt;span style=&quot;background-color: initial;&quot;&gt;}&lt;/span&gt;&lt;span style=&quot;background-color: initial;&quot;&gt;]&lt;/span&gt;&lt;/blockquote&gt;&lt;/blockquote&gt;&lt;/blockquote&gt;&lt;blockquote style=&quot;margin: 0 0 0 40px; border: none; padding: 0px;&quot;&gt;&lt;span style=&quot;background-color: initial;&quot;&gt;,options category 2: [...], ...&lt;/span&gt;&lt;/blockquote&gt;}&lt;br&gt;&lt;br&gt;options category key: &#39;toggling&#39; or &#39;selecting&#39;, or anything makes sense.. use to categorise the type of &amp;lt;input&amp;gt; that will be used e.g. &#39;toggling&#39; creates radio while &#39;selecting&#39; creates checkbox" style="text;html=1;align=left;verticalAlign=middle;whiteSpace=wrap;rounded=0;fillColor=default;" vertex="1" parent="1">
          <mxGeometry x="40" y="2010" width="550" height="280" as="geometry" />
        </mxCell>
        <mxCell id="5WE4nvKNfCI_7bMhw4-X-26" value="generateGameOptionFormElement" style="rounded=0;whiteSpace=wrap;html=1;fillColor=#e1d5e7;strokeColor=#9673a6;" vertex="1" parent="1">
          <mxGeometry x="40" y="2310" width="230" height="30" as="geometry" />
        </mxCell>
        <mxCell id="5WE4nvKNfCI_7bMhw4-X-27" value="Return a &amp;lt;form&amp;gt; element, which will be used to append to the &amp;lt;dialog&amp;gt; found in div.#home&lt;br&gt;&lt;br&gt;inputs created is based on values in private static prop &lt;b&gt;#AllGameOptions&lt;br&gt;&lt;/b&gt;" style="text;html=1;align=left;verticalAlign=middle;whiteSpace=wrap;rounded=0;fillColor=default;" vertex="1" parent="1">
          <mxGeometry x="40" y="2350" width="550" height="70" as="geometry" />
        </mxCell>
        <mxCell id="hok5GYzvioLT4FIFmb6I-1" value="updateOptions(formDataIterable)" style="rounded=0;whiteSpace=wrap;html=1;fillColor=#f8cecc;strokeColor=#b85450;" vertex="1" parent="1">
          <mxGeometry x="40" y="2440" width="190" height="30" as="geometry" />
        </mxCell>
        <mxCell id="hok5GYzvioLT4FIFmb6I-3" value="Updates the private ins. props. based on the values stored in the FormData object&lt;br&gt;&lt;br&gt;No return value.&lt;br&gt;&lt;br&gt;&lt;b&gt;&lt;i&gt;formDataIterable [Object]&lt;/i&gt;&lt;/b&gt; : An instance of FormData object from form submission." style="text;html=1;align=left;verticalAlign=middle;whiteSpace=wrap;rounded=0;fillColor=default;" vertex="1" parent="1">
          <mxGeometry x="40" y="2490" width="550" height="90" as="geometry" />
        </mxCell>
        <mxCell id="hok5GYzvioLT4FIFmb6I-4" value="Return an instance of CardGame.&lt;br&gt;*Only ever called by Hanafuda class&#39;s constructor in the form of super()&lt;br&gt;&lt;br&gt;&lt;b&gt;&lt;i&gt;playerList [Array]&lt;/i&gt;&lt;/b&gt; :&amp;nbsp;Pass an array containing at least 2 instances of Player&lt;br&gt;&lt;br&gt;&lt;b&gt;&lt;i&gt;play Area [Object]&lt;/i&gt;&lt;/b&gt; : Pass an instance of Field&lt;br&gt;&lt;br&gt;&lt;b&gt;&lt;i&gt;totalRounds [Int] &lt;/i&gt;&lt;/b&gt;:&amp;nbsp;Pass an integer stating the max round of games" style="text;html=1;align=left;verticalAlign=middle;whiteSpace=wrap;rounded=0;fillColor=default;" vertex="1" parent="1">
          <mxGeometry x="31" y="2720" width="550" height="132.5" as="geometry" />
        </mxCell>
        <mxCell id="hok5GYzvioLT4FIFmb6I-5" value="#playerList" style="rounded=0;whiteSpace=wrap;html=1;fillColor=#fff2cc;strokeColor=#d6b656;" vertex="1" parent="1">
          <mxGeometry x="31" y="2880" width="110" height="30" as="geometry" />
        </mxCell>
        <mxCell id="hok5GYzvioLT4FIFmb6I-6" value="#playingTable" style="rounded=0;whiteSpace=wrap;html=1;fillColor=#fff2cc;strokeColor=#d6b656;" vertex="1" parent="1">
          <mxGeometry x="31" y="2930" width="110" height="30" as="geometry" />
        </mxCell>
        <mxCell id="hok5GYzvioLT4FIFmb6I-7" value="#totalRounds" style="rounded=0;whiteSpace=wrap;html=1;fillColor=#fff2cc;strokeColor=#d6b656;" vertex="1" parent="1">
          <mxGeometry x="30" y="2980" width="110" height="30" as="geometry" />
        </mxCell>
        <mxCell id="hok5GYzvioLT4FIFmb6I-8" value="#currentTurnPlayer" style="rounded=0;whiteSpace=wrap;html=1;fillColor=#fff2cc;strokeColor=#d6b656;" vertex="1" parent="1">
          <mxGeometry x="30" y="3030" width="119" height="30" as="geometry" />
        </mxCell>
        <mxCell id="hok5GYzvioLT4FIFmb6I-9" value="#doneTurnPlayer" style="rounded=0;whiteSpace=wrap;html=1;fillColor=#fff2cc;strokeColor=#d6b656;" vertex="1" parent="1">
          <mxGeometry x="30" y="3095" width="110" height="30" as="geometry" />
        </mxCell>
        <mxCell id="hok5GYzvioLT4FIFmb6I-10" value="#maxTurnsPerRound" style="rounded=0;whiteSpace=wrap;html=1;fillColor=#fff2cc;strokeColor=#d6b656;" vertex="1" parent="1">
          <mxGeometry x="31" y="3165" width="130" height="30" as="geometry" />
        </mxCell>
        <mxCell id="hok5GYzvioLT4FIFmb6I-12" value="Array containing instances of Player or its descendant (CPU)" style="text;html=1;align=left;verticalAlign=middle;whiteSpace=wrap;rounded=0;fillColor=default;" vertex="1" parent="1">
          <mxGeometry x="185" y="2870" width="400" height="40" as="geometry" />
        </mxCell>
        <mxCell id="hok5GYzvioLT4FIFmb6I-13" value="A reference to the instance of Field. AKA table&amp;nbsp;" style="text;html=1;align=left;verticalAlign=middle;whiteSpace=wrap;rounded=0;fillColor=default;" vertex="1" parent="1">
          <mxGeometry x="185" y="2920" width="400" height="40" as="geometry" />
        </mxCell>
        <mxCell id="hok5GYzvioLT4FIFmb6I-14" value="Integer storing the remaining number of rounds." style="text;html=1;align=left;verticalAlign=middle;whiteSpace=wrap;rounded=0;fillColor=default;" vertex="1" parent="1">
          <mxGeometry x="185" y="2970" width="400" height="40" as="geometry" />
        </mxCell>
        <mxCell id="hok5GYzvioLT4FIFmb6I-20" style="edgeStyle=orthogonalEdgeStyle;rounded=0;orthogonalLoop=1;jettySize=auto;html=1;entryX=0;entryY=0.5;entryDx=0;entryDy=0;" edge="1" parent="1" source="hok5GYzvioLT4FIFmb6I-15" target="hok5GYzvioLT4FIFmb6I-17">
          <mxGeometry relative="1" as="geometry" />
        </mxCell>
        <mxCell id="hok5GYzvioLT4FIFmb6I-15" value="A reference to the Player instance that is the current active player of a turn&lt;br&gt;By default is undefined" style="text;html=1;align=left;verticalAlign=middle;whiteSpace=wrap;rounded=0;fillColor=default;" vertex="1" parent="1">
          <mxGeometry x="181" y="3020" width="400" height="50" as="geometry" />
        </mxCell>
        <mxCell id="hok5GYzvioLT4FIFmb6I-21" style="edgeStyle=orthogonalEdgeStyle;rounded=0;orthogonalLoop=1;jettySize=auto;html=1;entryX=0;entryY=0.5;entryDx=0;entryDy=0;" edge="1" parent="1" source="hok5GYzvioLT4FIFmb6I-16" target="hok5GYzvioLT4FIFmb6I-17">
          <mxGeometry relative="1" as="geometry" />
        </mxCell>
        <mxCell id="hok5GYzvioLT4FIFmb6I-16" value="Array contaning reference to instances of Player that have completed its turn.&lt;br&gt;By default is an empty array." style="text;html=1;align=left;verticalAlign=middle;whiteSpace=wrap;rounded=0;fillColor=default;" vertex="1" parent="1">
          <mxGeometry x="180" y="3080" width="400" height="60" as="geometry" />
        </mxCell>
        <mxCell id="hok5GYzvioLT4FIFmb6I-17" value="NOT passed as argument of constructor()!" style="text;html=1;align=left;verticalAlign=middle;whiteSpace=wrap;rounded=0;fillColor=#ffffff;strokeColor=#b85450;" vertex="1" parent="1">
          <mxGeometry x="630" y="3085" width="110" height="50" as="geometry" />
        </mxCell>
        <mxCell id="hok5GYzvioLT4FIFmb6I-22" style="edgeStyle=orthogonalEdgeStyle;rounded=0;orthogonalLoop=1;jettySize=auto;html=1;entryX=0;entryY=0.5;entryDx=0;entryDy=0;" edge="1" parent="1" source="hok5GYzvioLT4FIFmb6I-18" target="hok5GYzvioLT4FIFmb6I-17">
          <mxGeometry relative="1" as="geometry" />
        </mxCell>
        <mxCell id="hok5GYzvioLT4FIFmb6I-18" value="Integer storing the remaining number of turns per rounds.&lt;br&gt;By default id the number of player * 8 (playerList.length * 8)" style="text;html=1;align=left;verticalAlign=middle;whiteSpace=wrap;rounded=0;fillColor=default;" vertex="1" parent="1">
          <mxGeometry x="181" y="3150" width="400" height="60" as="geometry" />
        </mxCell>
        <mxCell id="hok5GYzvioLT4FIFmb6I-24" value="allPlayers()" style="rounded=0;whiteSpace=wrap;html=1;fillColor=#f8cecc;strokeColor=#b85450;" vertex="1" parent="1">
          <mxGeometry x="30" y="3240" width="100" height="30" as="geometry" />
        </mxCell>
        <mxCell id="hok5GYzvioLT4FIFmb6I-26" value="newTurn()" style="rounded=0;whiteSpace=wrap;html=1;fillColor=#f8cecc;strokeColor=#b85450;" vertex="1" parent="1">
          <mxGeometry x="30" y="3300" width="100" height="30" as="geometry" />
        </mxCell>
        <mxCell id="hok5GYzvioLT4FIFmb6I-27" value="newRound()" style="rounded=0;whiteSpace=wrap;html=1;fillColor=#f8cecc;strokeColor=#b85450;" vertex="1" parent="1">
          <mxGeometry x="30" y="3360" width="100" height="30" as="geometry" />
        </mxCell>
        <mxCell id="hok5GYzvioLT4FIFmb6I-28" value="summariseGame()" style="rounded=0;whiteSpace=wrap;html=1;fillColor=#f8cecc;strokeColor=#b85450;" vertex="1" parent="1">
          <mxGeometry x="30" y="3430" width="130" height="30" as="geometry" />
        </mxCell>
        <mxCell id="hok5GYzvioLT4FIFmb6I-29" value="getActivePlayer()" style="rounded=0;whiteSpace=wrap;html=1;fillColor=#f8cecc;strokeColor=#b85450;" vertex="1" parent="1">
          <mxGeometry x="30" y="3490" width="130" height="30" as="geometry" />
        </mxCell>
        <mxCell id="hok5GYzvioLT4FIFmb6I-30" value="getInactivePlayers()" style="rounded=0;whiteSpace=wrap;html=1;fillColor=#f8cecc;strokeColor=#b85450;" vertex="1" parent="1">
          <mxGeometry x="31" y="3570" width="130" height="30" as="geometry" />
        </mxCell>
        <mxCell id="hok5GYzvioLT4FIFmb6I-31" value="recordPlayerDoneTurn(player)" style="rounded=0;whiteSpace=wrap;html=1;fillColor=#f8cecc;strokeColor=#b85450;" vertex="1" parent="1">
          <mxGeometry x="31" y="3660" width="179" height="30" as="geometry" />
        </mxCell>
        <mxCell id="hok5GYzvioLT4FIFmb6I-32" value="checkRemainingTurns()" style="rounded=0;whiteSpace=wrap;html=1;fillColor=#f8cecc;strokeColor=#b85450;" vertex="1" parent="1">
          <mxGeometry x="31" y="3710" width="179" height="30" as="geometry" />
        </mxCell>
        <mxCell id="hok5GYzvioLT4FIFmb6I-33" value="checkRemainingRounds()" style="rounded=0;whiteSpace=wrap;html=1;fillColor=#f8cecc;strokeColor=#b85450;" vertex="1" parent="1">
          <mxGeometry x="31" y="3770" width="179" height="30" as="geometry" />
        </mxCell>
        <mxCell id="hok5GYzvioLT4FIFmb6I-34" value="proceedtoNextPlayer(upcomingPlayer)" style="rounded=0;whiteSpace=wrap;html=1;fillColor=#f8cecc;strokeColor=#b85450;" vertex="1" parent="1">
          <mxGeometry x="31" y="3840" width="239" height="30" as="geometry" />
        </mxCell>
        <mxCell id="hok5GYzvioLT4FIFmb6I-36" value="Hanafuda(gameOptions,playerList,playArea,totalRounds)" style="rounded=0;whiteSpace=wrap;html=1;fillColor=#d5e8d4;strokeColor=#82b366;" vertex="1" parent="1">
          <mxGeometry x="910" y="2630" width="410" height="40" as="geometry" />
        </mxCell>
        <mxCell id="hok5GYzvioLT4FIFmb6I-37" value="#gameOptions" style="rounded=0;whiteSpace=wrap;html=1;fillColor=#fff2cc;strokeColor=#d6b656;" vertex="1" parent="1">
          <mxGeometry x="910" y="2700" width="110" height="30" as="geometry" />
        </mxCell>
        <mxCell id="hok5GYzvioLT4FIFmb6I-38" value="" style="endArrow=none;dashed=1;html=1;dashPattern=1 3;strokeWidth=2;rounded=0;strokeColor=#ff0000;exitX=1;exitY=0.5;exitDx=0;exitDy=0;entryX=0;entryY=0.5;entryDx=0;entryDy=0;" edge="1" parent="1" source="_wq3pW8mDmLb4LpKICs8-8" target="hok5GYzvioLT4FIFmb6I-37">
          <mxGeometry width="50" height="50" relative="1" as="geometry">
            <mxPoint x="585" y="1640" as="sourcePoint" />
            <mxPoint x="1305" y="2133" as="targetPoint" />
            <Array as="points">
              <mxPoint x="680" y="1125" />
              <mxPoint x="680" y="2715" />
            </Array>
          </mxGeometry>
        </mxCell>
        <mxCell id="hok5GYzvioLT4FIFmb6I-39" value="#AllCards" style="rounded=0;whiteSpace=wrap;html=1;fillColor=#ffe6cc;strokeColor=#d79b00;" vertex="1" parent="1">
          <mxGeometry x="920" y="2822.5" width="110" height="30" as="geometry" />
        </mxCell>
        <mxCell id="hok5GYzvioLT4FIFmb6I-40" value="#Hana" style="rounded=0;whiteSpace=wrap;html=1;fillColor=#ffe6cc;strokeColor=#d79b00;" vertex="1" parent="1">
          <mxGeometry x="920" y="2900" width="110" height="30" as="geometry" />
        </mxCell>
        <mxCell id="hok5GYzvioLT4FIFmb6I-41" value="currentGameOptions" style="rounded=0;whiteSpace=wrap;html=1;fillColor=#dae8fc;strokeColor=#6c8ebf;" vertex="1" parent="1">
          <mxGeometry x="920" y="3000" width="130" height="30" as="geometry" />
        </mxCell>
        <mxCell id="hok5GYzvioLT4FIFmb6I-42" value="currentGameOptions" style="rounded=0;whiteSpace=wrap;html=1;fillColor=#FFCCE6;strokeColor=#bf6e9d;" vertex="1" parent="1">
          <mxGeometry x="920" y="3065" width="130" height="30" as="geometry" />
        </mxCell>
        <mxCell id="hok5GYzvioLT4FIFmb6I-43" value="newDeck(areaInDOM)" style="rounded=0;whiteSpace=wrap;html=1;fillColor=#f8cecc;strokeColor=#b85450;" vertex="1" parent="1">
          <mxGeometry x="920" y="3130" width="140" height="30" as="geometry" />
        </mxCell>
        <mxCell id="hok5GYzvioLT4FIFmb6I-44" value="determineOyaKen()" style="rounded=0;whiteSpace=wrap;html=1;fillColor=#f8cecc;strokeColor=#b85450;" vertex="1" parent="1">
          <mxGeometry x="915" y="3195" width="140" height="30" as="geometry" />
        </mxCell>
        <mxCell id="hok5GYzvioLT4FIFmb6I-45" value="getFlowerByMonth(month)" style="rounded=0;whiteSpace=wrap;html=1;fillColor=#e1d5e7;strokeColor=#9673a6;" vertex="1" parent="1">
          <mxGeometry x="915" y="3250" width="170" height="30" as="geometry" />
        </mxCell>
        <mxCell id="hok5GYzvioLT4FIFmb6I-46" value="#getIdByCategMonth(cardCateg, ...month)" style="rounded=0;whiteSpace=wrap;html=1;fillColor=#e1d5e7;strokeColor=#9673a6;" vertex="1" parent="1">
          <mxGeometry x="915" y="3310" width="255" height="30" as="geometry" />
        </mxCell>
        <mxCell id="hok5GYzvioLT4FIFmb6I-47" value="#checkGoKou(capturedHikari)" style="rounded=0;whiteSpace=wrap;html=1;fillColor=#e1d5e7;strokeColor=#9673a6;" vertex="1" parent="1">
          <mxGeometry x="915" y="3360" width="195" height="30" as="geometry" />
        </mxCell>
        <mxCell id="hok5GYzvioLT4FIFmb6I-48" value="#checkShiKou(capturedHikari)" style="rounded=0;whiteSpace=wrap;html=1;fillColor=#e1d5e7;strokeColor=#9673a6;" vertex="1" parent="1">
          <mxGeometry x="915" y="3410" width="195" height="30" as="geometry" />
        </mxCell>
        <mxCell id="hok5GYzvioLT4FIFmb6I-49" value="#checkAmeShiKou(capturedHikari)" style="rounded=0;whiteSpace=wrap;html=1;fillColor=#e1d5e7;strokeColor=#9673a6;" vertex="1" parent="1">
          <mxGeometry x="915" y="3470" width="215" height="30" as="geometry" />
        </mxCell>
        <mxCell id="hok5GYzvioLT4FIFmb6I-50" value="#checkSanKou(capturedHikari)" style="rounded=0;whiteSpace=wrap;html=1;fillColor=#e1d5e7;strokeColor=#9673a6;" vertex="1" parent="1">
          <mxGeometry x="915" y="3520" width="215" height="30" as="geometry" />
        </mxCell>
        <mxCell id="hok5GYzvioLT4FIFmb6I-51" value="#checkInoShikaChou(capturedTane)" style="rounded=0;whiteSpace=wrap;html=1;fillColor=#e1d5e7;strokeColor=#9673a6;" vertex="1" parent="1">
          <mxGeometry x="915" y="3580" width="225" height="30" as="geometry" />
        </mxCell>
        <mxCell id="hok5GYzvioLT4FIFmb6I-52" value="#checkAkaTan(capturedTanzaku)" style="rounded=0;whiteSpace=wrap;html=1;fillColor=#e1d5e7;strokeColor=#9673a6;" vertex="1" parent="1">
          <mxGeometry x="920" y="3630" width="225" height="30" as="geometry" />
        </mxCell>
        <mxCell id="hok5GYzvioLT4FIFmb6I-53" value="#checkAoTan(capturedTanzaku)" style="rounded=0;whiteSpace=wrap;html=1;fillColor=#e1d5e7;strokeColor=#9673a6;" vertex="1" parent="1">
          <mxGeometry x="920" y="3680" width="225" height="30" as="geometry" />
        </mxCell>
        <mxCell id="hok5GYzvioLT4FIFmb6I-54" value="#checkTanePoint(capturedTane)" style="rounded=0;whiteSpace=wrap;html=1;fillColor=#e1d5e7;strokeColor=#9673a6;" vertex="1" parent="1">
          <mxGeometry x="915" y="3750" width="225" height="30" as="geometry" />
        </mxCell>
        <mxCell id="hok5GYzvioLT4FIFmb6I-55" value="#checkTanPoint(capturedTanzaku)" style="rounded=0;whiteSpace=wrap;html=1;fillColor=#e1d5e7;strokeColor=#9673a6;" vertex="1" parent="1">
          <mxGeometry x="927.5" y="3810" width="225" height="30" as="geometry" />
        </mxCell>
        <mxCell id="hok5GYzvioLT4FIFmb6I-56" value="#checkKasuPoint(capturedKasu)" style="rounded=0;whiteSpace=wrap;html=1;fillColor=#e1d5e7;strokeColor=#9673a6;" vertex="1" parent="1">
          <mxGeometry x="920" y="3870" width="225" height="30" as="geometry" />
        </mxCell>
        <mxCell id="hok5GYzvioLT4FIFmb6I-57" value="#checkTsukimiDeIppai(capturedHikari,capturedTane)" style="rounded=0;whiteSpace=wrap;html=1;fillColor=#e1d5e7;strokeColor=#9673a6;" vertex="1" parent="1">
          <mxGeometry x="920" y="3930" width="310" height="30" as="geometry" />
        </mxCell>
        <mxCell id="hok5GYzvioLT4FIFmb6I-58" value="#checkHanamiDeIppai(capturedHikari,capturedTane)" style="rounded=0;whiteSpace=wrap;html=1;fillColor=#e1d5e7;strokeColor=#9673a6;" vertex="1" parent="1">
          <mxGeometry x="927.5" y="3980" width="310" height="30" as="geometry" />
        </mxCell>
        <mxCell id="hok5GYzvioLT4FIFmb6I-60" value="checkPlayerHandForYaku(player)" style="rounded=0;whiteSpace=wrap;html=1;fillColor=#f8cecc;strokeColor=#b85450;" vertex="1" parent="1">
          <mxGeometry x="940" y="4050" width="200" height="30" as="geometry" />
        </mxCell>
        <mxCell id="hok5GYzvioLT4FIFmb6I-61" value="#Yaku" style="rounded=0;whiteSpace=wrap;html=1;fillColor=#ffe6cc;strokeColor=#d79b00;" vertex="1" parent="1">
          <mxGeometry x="1110" y="2852.5" width="110" height="30" as="geometry" />
        </mxCell>
        <mxCell id="hok5GYzvioLT4FIFmb6I-62" value="#calculateYaku(playerYakuList)" style="rounded=0;whiteSpace=wrap;html=1;fillColor=#f8cecc;strokeColor=#b85450;" vertex="1" parent="1">
          <mxGeometry x="925" y="4140" width="195" height="30" as="geometry" />
        </mxCell>
        <mxCell id="Ylsy6nAlCidxWGnwSeZk-1" value="tallyRoundResult(koiKoiEvent,notKoiKoiPlayer)" style="rounded=0;whiteSpace=wrap;html=1;fillColor=#f8cecc;strokeColor=#b85450;" vertex="1" parent="1">
          <mxGeometry x="950" y="4210" width="280" height="30" as="geometry" />
        </mxCell>
        <mxCell id="Ylsy6nAlCidxWGnwSeZk-2" value="koiKoi(playerWithYaku)" style="rounded=0;whiteSpace=wrap;html=1;fillColor=#f8cecc;strokeColor=#b85450;" vertex="1" parent="1">
          <mxGeometry x="945" y="4260" width="165" height="30" as="geometry" />
        </mxCell>
      </root>
    </mxGraphModel>
  </diagram>
  <diagram id="vT3sd9rDis15ihNnYVG6" name="Events">
    <mxGraphModel dx="1073" dy="1540" grid="1" gridSize="10" guides="1" tooltips="1" connect="1" arrows="1" fold="1" page="1" pageScale="1" pageWidth="850" pageHeight="1100" math="0" shadow="0">
      <root>
        <mxCell id="0" />
        <mxCell id="1" parent="0" />
        <mxCell id="Zczref8kXtcdX6sptI6K-1" value="CardDeck" style="rounded=0;whiteSpace=wrap;html=1;fillColor=#d5e8d4;strokeColor=#82b366;" vertex="1" parent="1">
          <mxGeometry x="40" y="40" width="80" height="30" as="geometry" />
        </mxCell>
        <mxCell id="Zczref8kXtcdX6sptI6K-2" value="drawcardfromdeck" style="rounded=0;whiteSpace=wrap;html=1;fillColor=#ffe6cc;strokeColor=#d79b00;" vertex="1" parent="1">
          <mxGeometry x="40" y="90" width="130" height="30" as="geometry" />
        </mxCell>
        <mxCell id="Zczref8kXtcdX6sptI6K-4" value="&lt;ol&gt;&lt;li&gt;Draw a card from master deck.&lt;/li&gt;&lt;li&gt;Render it as its child element.&lt;/li&gt;&lt;li&gt;Transfer ownership to currently active player. But do not render it as need to be rendered at master deck area as player will need to deal the card the moment it is drawn.&lt;/li&gt;&lt;li&gt;Fire &lt;font color=&quot;#eb7d00&quot;&gt;pickcard&lt;/font&gt; event to &amp;lt;body&amp;gt;&lt;/li&gt;&lt;/ol&gt;" style="text;html=1;strokeColor=none;fillColor=default;align=left;verticalAlign=middle;whiteSpace=wrap;rounded=0;" vertex="1" parent="1">
          <mxGeometry x="40" y="285" width="350" height="100" as="geometry" />
        </mxCell>
        <mxCell id="Zczref8kXtcdX6sptI6K-5" value="event.detail&lt;br&gt;&lt;ul&gt;&lt;li&gt;instance of Player that complted 1st action of their turn (aka currently active player)&lt;/li&gt;&lt;/ul&gt;" style="text;html=1;strokeColor=none;fillColor=default;align=left;verticalAlign=middle;whiteSpace=wrap;rounded=0;" vertex="1" parent="1">
          <mxGeometry x="40" y="140" width="350" height="60" as="geometry" />
        </mxCell>
        <mxCell id="Ico4OayzwiwXJFrekzFu-1" value="&amp;lt;body&amp;gt;" style="rounded=0;whiteSpace=wrap;html=1;fillColor=#d5e8d4;strokeColor=#82b366;" vertex="1" parent="1">
          <mxGeometry x="520" y="110" width="80" height="30" as="geometry" />
        </mxCell>
        <mxCell id="Ico4OayzwiwXJFrekzFu-2" value="DOMContentLoaded" style="rounded=0;whiteSpace=wrap;html=1;fillColor=#fff2cc;strokeColor=#d6b656;" vertex="1" parent="1">
          <mxGeometry x="1095" y="20" width="130" height="30" as="geometry" />
        </mxCell>
        <mxCell id="Ico4OayzwiwXJFrekzFu-3" value="&amp;lt;button id=&quot;buttonGameOption&quot;&amp;gt;" style="rounded=0;whiteSpace=wrap;html=1;fillColor=#d5e8d4;strokeColor=#82b366;" vertex="1" parent="1">
          <mxGeometry x="1160" y="80" width="200" height="30" as="geometry" />
        </mxCell>
        <mxCell id="Ico4OayzwiwXJFrekzFu-4" value="&amp;lt;button id=&quot;buttonGameStart&quot;&amp;gt;" style="rounded=0;whiteSpace=wrap;html=1;fillColor=#d5e8d4;strokeColor=#82b366;" vertex="1" parent="1">
          <mxGeometry x="1150" y="195" width="200" height="30" as="geometry" />
        </mxCell>
        <mxCell id="Ico4OayzwiwXJFrekzFu-5" value="click" style="rounded=0;whiteSpace=wrap;html=1;fillColor=#fff2cc;strokeColor=#d6b656;" vertex="1" parent="1">
          <mxGeometry x="1160" y="130" width="130" height="30" as="geometry" />
        </mxCell>
        <mxCell id="Ico4OayzwiwXJFrekzFu-6" value="click" style="rounded=0;whiteSpace=wrap;html=1;fillColor=#fff2cc;strokeColor=#d6b656;" vertex="1" parent="1">
          <mxGeometry x="1150" y="260" width="130" height="30" as="geometry" />
        </mxCell>
        <mxCell id="Ico4OayzwiwXJFrekzFu-7" value="pickCard" style="rounded=0;whiteSpace=wrap;html=1;fillColor=#ffe6cc;strokeColor=#d79b00;" vertex="1" parent="1">
          <mxGeometry x="510" y="170" width="130" height="30" as="geometry" />
        </mxCell>
        <mxCell id="Ico4OayzwiwXJFrekzFu-8" value="Fired when player successfully performed the 1st action of their turn (deal from hand card)&amp;nbsp;" style="text;html=1;strokeColor=none;fillColor=default;align=left;verticalAlign=middle;whiteSpace=wrap;rounded=0;" vertex="1" parent="1">
          <mxGeometry x="40" y="205" width="350" height="60" as="geometry" />
        </mxCell>
        <mxCell id="Ico4OayzwiwXJFrekzFu-9" value="firstactiondone" style="rounded=0;whiteSpace=wrap;html=1;fillColor=#ffe6cc;strokeColor=#d79b00;" vertex="1" parent="1">
          <mxGeometry x="600" y="755" width="130" height="30" as="geometry" />
        </mxCell>
        <mxCell id="Ico4OayzwiwXJFrekzFu-10" value="turnend" style="rounded=0;whiteSpace=wrap;html=1;fillColor=#ffe6cc;strokeColor=#d79b00;" vertex="1" parent="1">
          <mxGeometry x="590" y="855" width="130" height="30" as="geometry" />
        </mxCell>
        <mxCell id="Ico4OayzwiwXJFrekzFu-11" value="nextplayerturn" style="rounded=0;whiteSpace=wrap;html=1;fillColor=#ffe6cc;strokeColor=#d79b00;" vertex="1" parent="1">
          <mxGeometry x="600" y="925" width="130" height="30" as="geometry" />
        </mxCell>
        <mxCell id="Ico4OayzwiwXJFrekzFu-12" value="koikoi" style="rounded=0;whiteSpace=wrap;html=1;fillColor=#ffe6cc;strokeColor=#d79b00;" vertex="1" parent="1">
          <mxGeometry x="600" y="1005" width="130" height="30" as="geometry" />
        </mxCell>
        <mxCell id="Ico4OayzwiwXJFrekzFu-13" value="nextround" style="rounded=0;whiteSpace=wrap;html=1;fillColor=#ffe6cc;strokeColor=#d79b00;" vertex="1" parent="1">
          <mxGeometry x="590" y="1085" width="130" height="30" as="geometry" />
        </mxCell>
        <mxCell id="Ico4OayzwiwXJFrekzFu-14" value="unpickCard" style="rounded=0;whiteSpace=wrap;html=1;fillColor=#ffe6cc;strokeColor=#d79b00;" vertex="1" parent="1">
          <mxGeometry x="510" y="500" width="130" height="30" as="geometry" />
        </mxCell>
        <mxCell id="Ico4OayzwiwXJFrekzFu-15" value="startnewround" style="rounded=0;whiteSpace=wrap;html=1;fillColor=#ffe6cc;strokeColor=#d79b00;" vertex="1" parent="1">
          <mxGeometry x="610" y="1145" width="130" height="30" as="geometry" />
        </mxCell>
        <mxCell id="Ico4OayzwiwXJFrekzFu-16" value="gameend" style="rounded=0;whiteSpace=wrap;html=1;fillColor=#ffe6cc;strokeColor=#d79b00;" vertex="1" parent="1">
          <mxGeometry x="600" y="1235" width="130" height="30" as="geometry" />
        </mxCell>
        <mxCell id="Ico4OayzwiwXJFrekzFu-17" value="Card" style="rounded=0;whiteSpace=wrap;html=1;fillColor=#d5e8d4;strokeColor=#82b366;" vertex="1" parent="1">
          <mxGeometry x="40" y="470" width="80" height="30" as="geometry" />
        </mxCell>
        <mxCell id="Ico4OayzwiwXJFrekzFu-18" value="Field" style="rounded=0;whiteSpace=wrap;html=1;fillColor=#d5e8d4;strokeColor=#82b366;" vertex="1" parent="1">
          <mxGeometry x="170" y="1330" width="80" height="30" as="geometry" />
        </mxCell>
        <mxCell id="Ico4OayzwiwXJFrekzFu-19" value="Player" style="rounded=0;whiteSpace=wrap;html=1;fillColor=#d5e8d4;strokeColor=#82b366;" vertex="1" parent="1">
          <mxGeometry x="170" y="1500" width="80" height="30" as="geometry" />
        </mxCell>
        <mxCell id="Ico4OayzwiwXJFrekzFu-21" value="click" style="rounded=0;whiteSpace=wrap;html=1;fillColor=#fff2cc;strokeColor=#d6b656;" vertex="1" parent="1">
          <mxGeometry x="50" y="530" width="130" height="30" as="geometry" />
        </mxCell>
        <mxCell id="Rrtnovh5XuSoCL8pAFi--1" value="&amp;lt;dialog id=&quot;gameOptionDialog&quot; lang=&quot;jp&quot;&amp;gt;" style="rounded=0;whiteSpace=wrap;html=1;fillColor=#d5e8d4;strokeColor=#82b366;" vertex="1" parent="1">
          <mxGeometry x="1150" y="350" width="280" height="30" as="geometry" />
        </mxCell>
        <mxCell id="Rrtnovh5XuSoCL8pAFi--2" value="submit" style="rounded=0;whiteSpace=wrap;html=1;fillColor=#fff2cc;strokeColor=#d6b656;" vertex="1" parent="1">
          <mxGeometry x="1210" y="440" width="130" height="30" as="geometry" />
        </mxCell>
        <mxCell id="Rrtnovh5XuSoCL8pAFi--3" value="&amp;lt;form id=&quot;gameOptionForm&quot; name=&quot;gameOptionForm&quot; method=&quot;dialog&quot;&amp;gt;" style="rounded=0;whiteSpace=wrap;html=1;fillColor=#d5e8d4;strokeColor=#82b366;" vertex="1" parent="1">
          <mxGeometry x="1190" y="390" width="420" height="30" as="geometry" />
        </mxCell>
        <mxCell id="Rrtnovh5XuSoCL8pAFi--4" value="&amp;lt;img alt=&quot;Reset&quot; class=&quot;buttonLike&quot; id=&quot;gameOptionResetButton&quot;&amp;gt;" style="rounded=0;whiteSpace=wrap;html=1;fillColor=#d5e8d4;strokeColor=#82b366;" vertex="1" parent="1">
          <mxGeometry x="1225" y="600" width="420" height="30" as="geometry" />
        </mxCell>
        <mxCell id="Rrtnovh5XuSoCL8pAFi--8" value="" style="endArrow=classic;html=1;rounded=0;exitX=0;exitY=1;exitDx=0;exitDy=0;entryX=0;entryY=0.5;entryDx=0;entryDy=0;" edge="1" parent="1" source="Rrtnovh5XuSoCL8pAFi--3" target="Rrtnovh5XuSoCL8pAFi--4">
          <mxGeometry width="50" height="50" relative="1" as="geometry">
            <mxPoint x="1240" y="510" as="sourcePoint" />
            <mxPoint x="1290" y="460" as="targetPoint" />
            <Array as="points">
              <mxPoint x="1190" y="615" />
            </Array>
          </mxGeometry>
        </mxCell>
        <mxCell id="Rrtnovh5XuSoCL8pAFi--9" value="" style="endArrow=classic;html=1;rounded=0;exitX=0;exitY=1;exitDx=0;exitDy=0;entryX=0;entryY=0.5;entryDx=0;entryDy=0;" edge="1" parent="1" source="Rrtnovh5XuSoCL8pAFi--1" target="Rrtnovh5XuSoCL8pAFi--3">
          <mxGeometry width="50" height="50" relative="1" as="geometry">
            <mxPoint x="1160" y="470" as="sourcePoint" />
            <mxPoint x="1210" y="420" as="targetPoint" />
            <Array as="points">
              <mxPoint x="1150" y="405" />
            </Array>
          </mxGeometry>
        </mxCell>
        <mxCell id="Rrtnovh5XuSoCL8pAFi--10" value="Window" style="rounded=0;whiteSpace=wrap;html=1;fillColor=#d5e8d4;strokeColor=#82b366;" vertex="1" parent="1">
          <mxGeometry x="985" y="20" width="80" height="30" as="geometry" />
        </mxCell>
        <mxCell id="eJDHumE-biELCvxNQfL1-1" value="&lt;ol&gt;&lt;li&gt;Create a FormData object.&lt;/li&gt;&lt;li&gt;Create a new instance of HanafudaGameOptions.&lt;/li&gt;&lt;li&gt;Call the HanafudaGameOptions&#39; instance method updateOptions() and pass the formData as the sole argument.&lt;/li&gt;&lt;li&gt;Store the instance in window.hanafudaOptions prop.&lt;/li&gt;&lt;/ol&gt;" style="text;html=1;strokeColor=none;fillColor=default;align=left;verticalAlign=middle;whiteSpace=wrap;rounded=0;" vertex="1" parent="1">
          <mxGeometry x="1210" y="480" width="350" height="100" as="geometry" />
        </mxCell>
        <mxCell id="eJDHumE-biELCvxNQfL1-3" value="click" style="rounded=0;whiteSpace=wrap;html=1;fillColor=#fff2cc;strokeColor=#d6b656;" vertex="1" parent="1">
          <mxGeometry x="1250" y="645" width="130" height="30" as="geometry" />
        </mxCell>
        <mxCell id="eJDHumE-biELCvxNQfL1-4" value="Reset the form" style="text;html=1;strokeColor=none;fillColor=default;align=left;verticalAlign=middle;whiteSpace=wrap;rounded=0;" vertex="1" parent="1">
          <mxGeometry x="1395" y="645" width="235" height="40" as="geometry" />
        </mxCell>
        <mxCell id="sgu5WUDkxk38Jn-6JhfT-1" value="click (playerCard)" style="rounded=0;whiteSpace=wrap;html=1;fillColor=#fff2cc;strokeColor=#d6b656;" vertex="1" parent="1">
          <mxGeometry x="50" y="610" width="130" height="30" as="geometry" />
        </mxCell>
        <mxCell id="sgu5WUDkxk38Jn-6JhfT-2" value="click (tableCard)" style="rounded=0;whiteSpace=wrap;html=1;fillColor=#fff2cc;strokeColor=#d6b656;" vertex="1" parent="1">
          <mxGeometry x="50" y="675" width="130" height="30" as="geometry" />
        </mxCell>
        <mxCell id="sgu5WUDkxk38Jn-6JhfT-3" value="capturecard" style="rounded=0;whiteSpace=wrap;html=1;fillColor=#ffe6cc;strokeColor=#d79b00;" vertex="1" parent="1">
          <mxGeometry x="50" y="770" width="130" height="30" as="geometry" />
        </mxCell>
        <mxCell id="sgu5WUDkxk38Jn-6JhfT-4" value="actioncompleted" style="rounded=0;whiteSpace=wrap;html=1;fillColor=#ffe6cc;strokeColor=#d79b00;" vertex="1" parent="1">
          <mxGeometry x="60" y="930" width="130" height="30" as="geometry" />
        </mxCell>
        <mxCell id="sgu5WUDkxk38Jn-6JhfT-5" value="dealtofield" style="rounded=0;whiteSpace=wrap;html=1;fillColor=#ffe6cc;strokeColor=#d79b00;" vertex="1" parent="1">
          <mxGeometry x="60" y="850" width="130" height="30" as="geometry" />
        </mxCell>
        <mxCell id="sgu5WUDkxk38Jn-6JhfT-6" value="nullify" style="rounded=0;whiteSpace=wrap;html=1;fillColor=#ffe6cc;strokeColor=#d79b00;" vertex="1" parent="1">
          <mxGeometry x="70" y="1010" width="130" height="30" as="geometry" />
        </mxCell>
        <mxCell id="sgu5WUDkxk38Jn-6JhfT-7" value="activate" style="rounded=0;whiteSpace=wrap;html=1;fillColor=#ffe6cc;strokeColor=#d79b00;" vertex="1" parent="1">
          <mxGeometry x="70" y="1070" width="130" height="30" as="geometry" />
        </mxCell>
        <mxCell id="sgu5WUDkxk38Jn-6JhfT-8" value="Fired when:&lt;br&gt;&lt;ul&gt;&lt;li&gt;&lt;b&gt;Players click on a hand card to deal&lt;/b&gt; -- Mutation observer attached to the card triggers callback func as card&#39;s classList changed&lt;/li&gt;&lt;li&gt;&lt;b&gt;CPU picks a hand card&lt;/b&gt; -- cpuPickHandCard() called&lt;/li&gt;&lt;li&gt;&lt;b&gt;CardDeck (master deck) draws a card&lt;/b&gt; -- CardDeck receives &#39;drawcardfromdeck&lt;span style=&quot;background-color: initial;&quot;&gt;&#39; event and handler callback func triggered&lt;/span&gt;&lt;/li&gt;&lt;/ul&gt;" style="text;html=1;strokeColor=none;fillColor=default;align=left;verticalAlign=middle;whiteSpace=wrap;rounded=0;" vertex="1" parent="1">
          <mxGeometry x="510" y="285" width="360" height="125" as="geometry" />
        </mxCell>
        <mxCell id="sgu5WUDkxk38Jn-6JhfT-9" value="event.detail&lt;br&gt;&lt;ul&gt;&lt;li&gt;instance of Card picked to be dealt&lt;/li&gt;&lt;/ul&gt;" style="text;html=1;strokeColor=none;fillColor=default;align=left;verticalAlign=middle;whiteSpace=wrap;rounded=0;" vertex="1" parent="1">
          <mxGeometry x="510" y="220" width="350" height="60" as="geometry" />
        </mxCell>
        <mxCell id="sgu5WUDkxk38Jn-6JhfT-10" value="event.detail&lt;br&gt;&lt;ul&gt;&lt;li&gt;N/A&lt;/li&gt;&lt;/ul&gt;" style="text;html=1;strokeColor=none;fillColor=default;align=left;verticalAlign=middle;whiteSpace=wrap;rounded=0;" vertex="1" parent="1">
          <mxGeometry x="510" y="550" width="350" height="60" as="geometry" />
        </mxCell>
      </root>
    </mxGraphModel>
  </diagram>
  <diagram id="47w8m6pxM6GfhzUFZOVX" name="Program Flow">
    <mxGraphModel dx="562" dy="693" grid="1" gridSize="10" guides="1" tooltips="1" connect="1" arrows="1" fold="1" page="1" pageScale="1" pageWidth="850" pageHeight="1100" math="0" shadow="0">
      <root>
        <mxCell id="0" />
        <mxCell id="1" parent="0" />
      </root>
    </mxGraphModel>
  </diagram>
</mxfile>
